<svg viewBox="0 0 165.85 141.67" xmlns="http://www.w3.org/2000/svg"><clipPath id="a"><path d="M17.81 56.49c16.41-.77 26.61 10.43 41.69 21.63 17.08 12.69 40.42 25.39 86.12 20.65l2.43-31.6C63.83 99.65 65.53 43.11 22.93 42.73z"/></clipPath><linearGradient id="b" gradientTransform="matrix(0 -210.2 -210.2 0 32227.44 3694.77)" gradientUnits="userSpaceOnUse" x1="16.91" x2="17.91" y1="152.93" y2="152.93"><stop offset="0" stop-color="#048dce"/><stop offset=".02" stop-color="#008acd"/><stop offset=".2" stop-color="#2e77ab"/><stop offset=".6" stop-color="#00a2dd"/><stop offset="1" stop-color="#1687c9"/></linearGradient><clipPath id="c"><path d="M89.44 49.13c-10.73-3.42-21.2 2.39-32.65 8.2-11.81 6-24.65 12-39.88 7.83l9.65 25.6C58.62 86 68.73 51.63 90 60.13c28.79 11.51 47.51 7.92 57.41-6.39l-3.48-17.64c-9.91 14.31-33.46 19.75-54.49 13"/></clipPath><linearGradient id="d" gradientTransform="matrix(129.72 0 0 -129.72 -2173.46 19897.67)" gradientUnits="userSpaceOnUse" x1="16.91" x2="17.91" y1="152.9" y2="152.9"><stop offset="0" stop-color="#f5665b"/><stop offset=".2" stop-color="#ee7f40"/><stop offset=".6" stop-color="#cf4f45"/><stop offset="1" stop-color="#f45a49"/></linearGradient><clipPath id="e"><path d="M16.91 18.7h131.14v134.21H16.91z"/></clipPath><g clip-path="url(#a)"><path d="M33.96 1.81h97.93v142.63H33.96z" fill="url(#b)" transform="rotate(-72.06 82.933 73.123)"/></g><g clip-path="url(#c)"><path d="M11.79 18.41H152.5v90.04H11.79z" fill="url(#d)" transform="rotate(-16.8 82.15 63.405)"/></g><g clip-path="url(#e)"><path d="M65.51 99.65q0-11.64 2.63-18.38a28.74 28.74 0 0 1 8.53-11.69 55.85 55.85 0 0 0 9-9 14.75 14.75 0 0 0 3.07-9.05q0-12-10.36-12A9.63 9.63 0 0 0 70.61 43q-3 3.51-3.11 9.49h-27q.16-16 10.05-24.85t27.8-8.94q17.78 0 27.55 8.22t9.77 23.36a27.3 27.3 0 0 1-2.63 12 40.81 40.81 0 0 1-8.45 11.08l-9.18 8.53A21.67 21.67 0 0 0 90 89.64a30.35 30.35 0 0 0-1.67 10zm-3.27 24.24a12.4 12.4 0 0 1 4.26-9.69 15.49 15.49 0 0 1 10.65-3.78 15.49 15.49 0 0 1 10.65 3.78 13.15 13.15 0 0 1 0 19.38 15.45 15.45 0 0 1-10.65 3.79 15.45 15.45 0 0 1-10.65-3.79 12.37 12.37 0 0 1-4.26-9.69" fill="#f0eff0"/></g></svg>