<svg xmlns="http://www.w3.org/2000/svg" xmlns:xlink="http://www.w3.org/1999/xlink" viewBox="0 0 345.62 240.06"><defs><style>.b8ec3741-3dbb-4d05-9389-6ecebe4e5041{fill:url(#b4682b6a-6b7f-4f79-b2eb-c0481d6faa6c)}</style><linearGradient id="ac30b320-f3a1-411f-8237-6ef0e2bbffe2" x1="310.16" y1="24.34" x2="297.94" y2="207.97" gradientUnits="userSpaceOnUse"><stop offset="0" stop-color="#d6645a"/><stop offset=".2" stop-color="#d37d45"/><stop offset=".6" stop-color="#b34f46"/><stop offset="1" stop-color="#d45949"/></linearGradient><linearGradient id="bd3c7194-d774-45b8-aab0-c03154b5bb88" x1="-23.75" y1="183.59" x2="57.55" y2="68.32" gradientUnits="userSpaceOnUse"><stop offset="0" stop-color="#4e8aca"/><stop offset=".02" stop-color="#4988c8"/><stop offset=".2" stop-color="#4c76a6"/><stop offset=".6" stop-color="#44a0d9"/><stop offset="1" stop-color="#4d84c5"/></linearGradient><radialGradient id="b35dea07-5823-44fd-be1f-4de3bda7ce05" cx="-90.76" cy="62.23" r="388.4" gradientUnits="userSpaceOnUse"><stop offset="0" stop-color="#a2692a"/><stop offset=".12" stop-color="#dfb253"/><stop offset=".21" stop-color="#ffffc0"/><stop offset=".29" stop-color="#f8ed9e"/><stop offset=".4" stop-color="#d1af5f"/><stop offset=".48" stop-color="#f8ed9e"/><stop offset=".64" stop-color="#d2a045"/><stop offset=".73" stop-color="#d1af5f"/><stop offset=".82" stop-color="#bc8a3c"/><stop offset=".92" stop-color="#bc8a3c"/><stop offset="1" stop-color="#a0682a"/></radialGradient><radialGradient id="e444fd1b-38a7-4ac5-9dd3-debf421fe524" cx="-19.76" cy="-52.77" r="349.24" gradientUnits="userSpaceOnUse"><stop offset="0" stop-color="#ad7e3b"/><stop offset=".06" stop-color="#9b6e39"/><stop offset=".14" stop-color="#ad864c"/><stop offset=".28" stop-color="#b7883c"/><stop offset=".44" stop-color="#f1d879"/><stop offset=".56" stop-color="#ead170"/><stop offset=".62" stop-color="#f1d879"/><stop offset=".76" stop-color="#c8983b"/><stop offset=".88" stop-color="#cdac5f"/><stop offset="1" stop-color="#8c5f39"/></radialGradient><linearGradient id="b3dd421a-5511-4374-90a6-8f2a35a357ed" x1="151.02" y1="47.56" x2="176.12" y2="134.75" gradientUnits="userSpaceOnUse"><stop offset="0"/><stop offset=".49" stop-color="#fff"/><stop offset="1"/></linearGradient><radialGradient id="b4682b6a-6b7f-4f79-b2eb-c0481d6faa6c" cx="323.24" cy=".23" r="346.87" xlink:href="#e444fd1b-38a7-4ac5-9dd3-debf421fe524"/><linearGradient id="bd10d69e-94c5-4756-89c2-6f404af6e874" x1="61.76" y1="129" x2="108.66" y2="176.78" xlink:href="#b3dd421a-5511-4374-90a6-8f2a35a357ed"/><radialGradient id="a54b5653-4c1f-4495-92b2-8f9838cdb850" cx="505.24" cy="-19.77" r="509.02" xlink:href="#e444fd1b-38a7-4ac5-9dd3-debf421fe524"/><linearGradient id="bad5df7f-1216-4535-a050-92012959d24e" x1="-35.62" y1="227.5" x2="114.9" y2="14.1" xlink:href="#bd3c7194-d774-45b8-aab0-c03154b5bb88"/><linearGradient id="acea6244-2a1c-486d-bf13-fe9d454be10a" x1="123.57" y1="50.06" x2="150.52" y2="11.84" xlink:href="#bd3c7194-d774-45b8-aab0-c03154b5bb88"/><linearGradient id="ad28babb-14ff-4524-bb44-6271264b2e0e" x1="-14.19" y1="225.68" x2="136.32" y2="12.27" gradientTransform="matrix(-1 0 0 1 367.05 0)" xlink:href="#ac30b320-f3a1-411f-8237-6ef0e2bbffe2"/><linearGradient id="e216c09f-f93b-4888-9711-e79995b8b627" x1="144.99" y1="48.23" x2="171.94" y2="10.02" gradientTransform="matrix(-1 0 0 1 367.05 0)" xlink:href="#ac30b320-f3a1-411f-8237-6ef0e2bbffe2"/><linearGradient id="aac84b7e-7569-47c4-9f9f-8a7e8bf7780b" x1="87.36" y1="147.85" x2="134.26" y2="195.63" xlink:href="#b3dd421a-5511-4374-90a6-8f2a35a357ed"/><linearGradient id="a235199c-5894-4a41-b305-669474195296" x1="114.6" y1="164.48" x2="161.5" y2="212.26" xlink:href="#b3dd421a-5511-4374-90a6-8f2a35a357ed"/><linearGradient id="b257b13d-7c52-4c3b-9f6e-585e73dca285" x1="140.56" y1="182.61" x2="187.46" y2="230.39" xlink:href="#b3dd421a-5511-4374-90a6-8f2a35a357ed"/></defs><g style="isolation:isolate"><g id="a9e08797-8f0b-4a81-9f72-47000739c09e" data-name="Слой 2"><g id="a3ea146f-6677-48b9-8abb-bc23e488fd30" data-name="Слой 1"><path d="M299.61 168.88c-10.78 7.49-23.66-4.21-29.94-23.41-5.42-16.58-2.36-38.55 3.51-57.84 9.25-30.38 44.92-60.33 44.92-60.33l27.52 11s-29.16 19.82-38 42.94c-19.38 50.86-.56 76 31.48 60.44-21.44 13.55-22.68 15.51-39.49 27.2z" fill="url(#ac30b320-f3a1-411f-8237-6ef0e2bbffe2)"/><path d="M46 170.7c10.77 7.49 23.65-4.21 29.93-23.41 5.42-16.58 2.36-38.55-3.51-57.83-9.23-30.39-44.9-60.33-44.9-60.33L0 40.13S29.17 60 38 83.07c19.38 50.86.56 76-31.47 60.44C28 157.05 29.2 159 46 170.7z" fill="url(#bd3c7194-d774-45b8-aab0-c03154b5bb88)"/><path d="M207 96.64c2-26.95-29.53-46.19-29.53-46.19-3.7-2.17-6.92-3.49-13.7-3.49-18.5 0-46.49 8.94-48.07 9.45a23.35 23.35 0 0 1-9.09 1.41 90.94 90.94 0 0 1-15.82-1.71c-4.1 0-14.87-6.47-16.6-7.51a15.25 15.25 0 0 0-5-.93 7.94 7.94 0 0 0-6.45 2.78L39.39 103.7c-7.33 13.79-7.87 17.79-7.81 18.82 12.82 3.11 29.81 21.52 34 26.27l113.8 88.59a20.35 20.35 0 0 0 9.52 2.68c11.9 0 17.08-14.64 17.14-14.81l.37-1.1 1.14.2a31.72 31.72 0 0 0 5.63.54c16.08 0 16.9-15.18 16.93-15.82l.08-1.67 1.62.43a35.86 35.86 0 0 0 9 1.26c16.75 0 18.43-15.78 18.49-16.43l.13-1.47 1.45.28a38.24 38.24 0 0 0 6.89.69c5.61 0 9.8-1.66 12.49-4.94 5.18-6.32 3.31-16.7 3.2-17.29-4.32-17.48-68.6-67.42-76.45-73.29z" fill="url(#b35dea07-5823-44fd-be1f-4de3bda7ce05)"/><path d="M193.16 47.89c-6.49 0-9 2.44-9 2.48A473.54 473.54 0 0 1 127.57 102c-4.7 10.39 7.56 18.95 9.17 20a39.54 39.54 0 0 0 9.33 1.23 17.08 17.08 0 0 0 7-1.16l.31-.17h.45c7.25 0 33.35-21.8 42.8-30.2l.69-.62" fill="url(#e444fd1b-38a7-4ac5-9dd3-debf421fe524)"/><path d="M193.16 47.89c-6.49 0-9 2.44-9 2.48A473.54 473.54 0 0 1 127.57 102c-4.7 10.39 7.56 18.95 9.17 20a39.54 39.54 0 0 0 9.33 1.23 17.08 17.08 0 0 0 7-1.16l.31-.17h.45c7.25 0 33.35-21.8 42.8-30.2l.69-.62z" style="mix-blend-mode:overlay" fill="url(#b3dd421a-5511-4374-90a6-8f2a35a357ed)"/><path class="b8ec3741-3dbb-4d05-9389-6ecebe4e5041" d="M76.52 180.63a15.32 15.32 0 0 1-10.75-4.35l-.25-.22a15.46 15.46 0 0 1-.25-21.84l20.84-21.16a15.49 15.49 0 0 1 21.83-.24l.21.2a15.48 15.48 0 0 1 .25 21.82L87.56 176a15.28 15.28 0 0 1-11.04 4.63z"/><path d="M76.52 180.63a15.32 15.32 0 0 1-10.75-4.35l-.25-.22a15.46 15.46 0 0 1-.25-21.84l20.84-21.16a15.49 15.49 0 0 1 21.83-.24l.21.2a15.48 15.48 0 0 1 .25 21.82L87.56 176a15.28 15.28 0 0 1-11.04 4.63z" style="mix-blend-mode:overlay" fill="url(#bd10d69e-94c5-4756-89c2-6f404af6e874)"/><path class="b8ec3741-3dbb-4d05-9389-6ecebe4e5041" d="M102.12 199.49a15.36 15.36 0 0 1-10.75-4.35l-.25-.22a15.46 15.46 0 0 1-.24-21.85l20.81-21.15a15.48 15.48 0 0 1 21.8-.28l.24.22a15.46 15.46 0 0 1 .27 21.84l-20.84 21.16a15.32 15.32 0 0 1-11.04 4.63z"/><path class="b8ec3741-3dbb-4d05-9389-6ecebe4e5041" d="M129.36 216.11a15.31 15.31 0 0 1-10.76-4.35l-.24-.22a15.46 15.46 0 0 1-.25-21.84L139 168.54a15.49 15.49 0 0 1 21.84-.23l.22.22a15.45 15.45 0 0 1 .23 21.79l-20.89 21.16a15.3 15.3 0 0 1-11.04 4.63zm25.95 18.13a15.29 15.29 0 0 1-10.76-4.35l-.24-.22a15.46 15.46 0 0 1-.25-21.84l20.84-21.16a15.52 15.52 0 0 1 21.83-.26l.23.23a15.46 15.46 0 0 1 .23 21.82l-20.84 21.15a15.3 15.3 0 0 1-11.04 4.63z"/><path d="M197.35 91.15l.82.41c30.83 22.53 70.83 59.56 73.45 62.11 2.18 2 5.49 5.52 5.49 5.52l4-2 .13-.13 32.16-26.85.22-.08c2.71-2.82 16.5-11.78 17.41-14.05a6.79 6.79 0 0 0-.06-5l-34.66-56.91c-4-5.45-7.45-6.28-9.74-6.28-.24 0-3.88 2.81-4 2.81a53.46 53.46 0 0 1-32.67 11 36.24 36.24 0 0 1-4.58-.24c-12.3-1.21-27.48-6.43-28.14-6.65l-.15-.06c-9.37-4.58-17.4-6.89-23.86-6.89" fill="url(#a54b5653-4c1f-4495-92b2-8f9838cdb850)"/><path d="M138.38 1.82c12.23 18.06 19.34 55.71-12.21 49.81-34-6.36-58.24 5.9-78.39 43.55C28.16 131.86 46 170.7 46 170.7L6.5 143.51s-16.5-29 14.69-72.06c32.09-44.31 65.29-50 98.28-39.13 15.82 5.22 38.25-4.52 33.12-25z" fill="url(#bad5df7f-1216-4535-a050-92012959d24e)"/><path d="M146 45.51a50.21 50.21 0 0 0 6.61-38.18l-14.23-5.51s14.95 25.1 7.62 43.69z" fill="url(#acea6244-2a1c-486d-bf13-fe9d454be10a)"/><path d="M207.24 0C195 18.06 187.91 55.71 219.46 49.81c34-6.36 58.24 5.9 78.38 43.55 19.63 36.67 1.77 75.52 1.77 75.52l39.52-27.19s16.49-29-14.69-72.07c-32.1-44.3-65.29-50-98.29-39.12-15.82 5.22-38.24-4.5-33.15-25z" fill="url(#ad28babb-14ff-4524-bb44-6271264b2e0e)"/><path d="M199.64 43.68A50.23 50.23 0 0 1 193 5.5L207.24 0s-14.95 25.1-7.6 43.68z" fill="url(#e216c09f-f93b-4888-9711-e79995b8b627)"/><path d="M102.12 199.49a15.38 15.38 0 0 1-10.75-4.35l-.25-.22a15.46 15.46 0 0 1-.25-21.84l20.84-21.16a15.47 15.47 0 0 1 21.83-.24l.21.2a15.48 15.48 0 0 1 .25 21.82l-20.84 21.16a15.32 15.32 0 0 1-11.04 4.63z" style="mix-blend-mode:overlay" fill="url(#aac84b7e-7569-47c4-9f9f-8a7e8bf7780b)"/><path d="M129.37 216.11a15.34 15.34 0 0 1-10.76-4.35l-.24-.22a15.46 15.46 0 0 1-.26-21.84L139 168.54a15.5 15.5 0 0 1 21.84-.24l.2.2a15.48 15.48 0 0 1 .26 21.82l-20.9 21.16a15.26 15.26 0 0 1-11.03 4.63z" style="mix-blend-mode:overlay" fill="url(#a235199c-5894-4a41-b305-669474195296)"/><path d="M155.32 234.24a15.34 15.34 0 0 1-10.76-4.35l-.24-.22a15.46 15.46 0 0 1-.25-21.84l20.84-21.16a15.49 15.49 0 0 1 21.83-.24l.2.2a15.48 15.48 0 0 1 .26 21.82l-20.84 21.16a15.3 15.3 0 0 1-11.04 4.63z" style="mix-blend-mode:overlay" fill="url(#b257b13d-7c52-4c3b-9f6e-585e73dca285)"/></g></g></g></svg>