<svg viewBox="0 0 79.85 101.75" xmlns="http://www.w3.org/2000/svg" xmlns:xlink="http://www.w3.org/1999/xlink"><linearGradient id="b" gradientTransform="rotate(-76.39 82.098 46.577)" gradientUnits="userSpaceOnUse" x1="57.71" x2="38.35" y1="45.29" y2="25.92"><stop offset="0" stop-color="#d6645a"/><stop offset=".2" stop-color="#d37d45"/><stop offset=".6" stop-color="#b34f46"/><stop offset="1" stop-color="#d45949"/></linearGradient><linearGradient id="c" gradientUnits="userSpaceOnUse" x1="21.46" x2="22.4" y1="74.96" y2="19.43"><stop offset="0" stop-color="#4e8aca"/><stop offset=".02" stop-color="#4988c8"/><stop offset=".2" stop-color="#4c76a6"/><stop offset=".6" stop-color="#44a0d9"/><stop offset="1" stop-color="#4d84c5"/></linearGradient><linearGradient id="a" gradientTransform="scale(-1 1) rotate(-60.6 -52.879 62.84)" gradientUnits="userSpaceOnUse" x1="12.47" x2="-48.82" y1="52.19" y2="50.99"><stop offset="0" stop-color="#c3c2c2"/><stop offset=".18" stop-color="#b4b3b4"/><stop offset=".2" stop-color="#b6b5b6"/><stop offset=".38" stop-color="#cfcecf"/><stop offset=".57" stop-color="#e1e0e1"/><stop offset=".77" stop-color="#ecebec"/><stop offset="1" stop-color="#efeeef"/></linearGradient><linearGradient id="d" x1="-47.8" x2="13.06" xlink:href="#a" y1="63.82" y2="63.82"/><linearGradient id="e" gradientTransform="rotate(60.75 -126.674 396.493)" x1="-333.68" x2="-333.61" xlink:href="#a" y1="74.78" y2="71"/><linearGradient id="f" gradientTransform="rotate(60.75 -126.674 396.493)" x1="-308.5" x2="-308.5" xlink:href="#a" y1="77.11" y2="69.67"/><linearGradient id="g" x1="47.01" x2="31.51" xlink:href="#b" y1="55.85" y2="40.35"/><linearGradient id="h" x1="41.85" x2="39.47" xlink:href="#c" y1="66.77" y2="78.79"/><linearGradient id="i" x1="53.35" x2="52.77" xlink:href="#c" y1="70.44" y2="85.39"/><linearGradient id="j" x1="70.83" x2="47.48" xlink:href="#b" y1="39.8" y2="16.45"/><path d="M77.86 74.68c-1.15-4.78-15.69 1-15.69 1s-11.72 4.21-14.64 1.65c1.37 1.41 2.22 2.44 3.34 3.51 1.55 1.47 8.06 0 12-1.15s14.83-6.09 15.95-2.53a9.59 9.59 0 0 1-.96-2.48z" fill="url(#b)"/><path d="M43.9 75.83c-8.19-.11-17.21-3-12-16.4 6.44-16.66 2.1-26.67-5.92-35-9.64-10-18.53-9.23-18.53-9.23L0 15.72C12 16.19 33.67 29.88 25 51c-5.66 13.83-4.15 19.82.52 22.31s18.38 2.52 18.38 2.52z" fill="url(#c)"/><path d="M29.26 2.15C35-1.08 46 7.55 53.76 21.42s9.39 27.73 3.62 31l-6.56 3.68c5.77-3.23 4.15-17.1-3.62-31S28.46 2.59 22.69 5.82z" fill="url(#a)"/><path d="M51.3 57.67C45.21 61.09 33.61 52 25.4 37.3S15.47 8 21.57 4.57L28.45.71c-6.09 3.42-4.38 18.07 3.83 32.74s19.81 23.78 25.91 20.37z" fill="url(#d)"/><path d="M28.45.72c-6.09 3.41-4.38 18.06 3.83 32.73s19.81 23.78 25.91 20.37 4.38-18.07-3.83-32.74S34.55-2.7 28.45.72zm.81 1.43C35-1.08 46 7.55 53.76 21.42s9.39 27.73 3.62 31S40.65 47 32.88 33.11 23.49 5.38 29.26 2.15z" fill="#eeedee"/><path d="M54.06 60.74l-2-3.51s-.65-.93.66-1a8.15 8.15 0 0 0 2.85-.94l2 3.5z" fill="url(#e)"/><path d="M74 98.74L53 61.32l5.6-3.13 21 37.42a3.25 3.25 0 0 1-5.6 3.13z" fill="url(#f)"/><path d="M29.26 2.15c2-.45 12.34 3.9 22.24 20.44C62.78 41.43 57.42 53 57.42 53S46 56.34 33.13 33.55C19.63 9.63 27.94 3.2 29.26 2.15z" fill="#fff"/><path d="M78.82 77.16c3.86 8.16-4.06 19.93-8.52 24.59l-6-7.19S79.33 83 77.86 74.68z" fill="url(#g)"/><path d="M25.8 73.34c4.39 1.6 13.82.54 20.06-1.79 0 0 5.88.06 8.32.91 1.74.61 0 2 .85 2.22-2.46-1-7.53 1.19-10.85 1.15-13.03-.17-18.38-2.49-18.38-2.49z" fill="url(#h)"/><path d="M45.55 71.93c8.18.29 10.78 2.28 5.25 11.29-4.07 6.61-6.11 7.78-6.11 7.78L53 95.21s10.87-10.16 7-18.45c-3.64-7.63-11-5.29-14.45-4.83z" fill="url(#i)"/><path d="M74.12 58C54 63.88 46.25 75.14 50.87 80.87l-3.34-3.51C35.45 63.18 58.76 52.4 68 49.18z" fill="url(#j)"/></svg>