<svg viewBox="0 0 139.08 118.3" xmlns="http://www.w3.org/2000/svg" xmlns:xlink="http://www.w3.org/1999/xlink"><linearGradient id="c" gradientUnits="userSpaceOnUse" x1="113.71" x2="131.47" y1="37.67" y2="-28.47"><stop offset="0" stop-color="#048dce"/><stop offset=".02" stop-color="#008acd"/><stop offset=".2" stop-color="#2e77ab"/><stop offset=".6" stop-color="#00a2dd"/><stop offset="1" stop-color="#1687c9"/></linearGradient><linearGradient id="b" gradientUnits="userSpaceOnUse" x1="80.61" x2="41.03" y1="86.27" y2="46.69"><stop offset="0" stop-color="#f5655a"/><stop offset=".2" stop-color="#ee7f40"/><stop offset=".6" stop-color="#cf4f45"/><stop offset="1" stop-color="#f45a48"/></linearGradient><linearGradient id="a" gradientTransform="matrix(1 0 0 -1 -185.91 209.46)" gradientUnits="userSpaceOnUse" x1="282.9" x2="282.9" y1="185.46" y2="148.33"><stop offset="0" stop-color="#a8a7a7"/><stop offset=".18" stop-color="#b7b6b6"/><stop offset=".19" stop-color="#b7b6b6"/><stop offset=".37" stop-color="#d0cfcf"/><stop offset=".56" stop-color="#e2e1e1"/><stop offset=".77" stop-color="#edecec"/><stop offset="1" stop-color="#f0efef"/></linearGradient><linearGradient id="d" gradientTransform="matrix(-1 0 0 1 372.46 -107.34)" x1="257.57" x2="257.49" xlink:href="#a" y1="187.8" y2="140.81"/><linearGradient id="e" gradientTransform="matrix(-1 0 0 1 371.08 -104.02)" x1="252.95" x2="252.74" xlink:href="#a" y1="182.05" y2="152.76"/><linearGradient id="f" gradientTransform="scale(-1 1) rotate(-45 -58.032 560.99)" x1="247.81" x2="248.14" xlink:href="#a" y1="188.12" y2="114.1"/><linearGradient id="g" gradientTransform="scale(-1 1) rotate(-45 -58.032 560.99)" x1="243.53" x2="243.61" xlink:href="#a" y1="188.12" y2="147.17"/><linearGradient id="h" gradientTransform="rotate(180 -70.15 95.765)" x1="-219.32" x2="-219.4" xlink:href="#a" y1="187.8" y2="140.81"/><linearGradient id="i" gradientTransform="rotate(180 -74.155 94.105)" x1="-223.94" x2="-224.16" xlink:href="#a" y1="182.05" y2="152.76"/><linearGradient id="j" gradientTransform="rotate(45 102.718 455.977)" x1="-229.08" x2="-228.76" xlink:href="#a" y1="188.12" y2="114.1"/><linearGradient id="k" gradientTransform="rotate(45 102.718 455.977)" x1="-233.37" x2="-233.29" xlink:href="#a" y1="188.12" y2="147.17"/><linearGradient id="l" gradientTransform="scale(-1 1) rotate(-45 -58.032 560.99)" gradientUnits="userSpaceOnUse" x1="277.02" x2="288.97" y1="227.34" y2="227.34"><stop offset="0" stop-color="#c6c5c5"/><stop offset=".18" stop-color="#b7b6b6"/><stop offset=".19" stop-color="#b7b6b6"/><stop offset=".37" stop-color="#d0cfcf"/><stop offset=".56" stop-color="#e2e1e1"/><stop offset=".77" stop-color="#edecec"/><stop offset="1" stop-color="#f0efef"/></linearGradient><linearGradient id="m" x1="58.73" x2="27.06" xlink:href="#b" y1="107.85" y2="76.18"/><linearGradient id="n" x1="126.14" x2="72.51" xlink:href="#b" y1="68.29" y2="14.67"/><linearGradient id="o" x1="3.96" x2="99.13" xlink:href="#c" y1="68.04" y2="70.64"/><linearGradient id="p" x1="127.5" x2="93.24" xlink:href="#c" y1="2.52" y2="22.01"/><path d="M112.37 31l5.08 5.85s6.32-10.53 3.06-16.84a63.46 63.46 0 0 0-4.51-8.28c1.93 6.49 3.61 11.73-3.63 19.27z" fill="url(#c)"/><path d="M72.58 94c9-4.58-9.58-30.66-9.58-30.66S49 42.09 52.68 35c-2.15 3.42-3.79 5.6-5.37 8.34-2.17 3.77 3.9 16 8.07 23.32S74.67 93.17 68.13 97.1a19.85 19.85 0 0 1 4.45-3.1z" fill="url(#b)"/><path d="M73.56 24.07h46.85v36.05H73.56z" fill="url(#a)" transform="rotate(-135 96.991 42.093)"/><path d="M112.99 39.46h3.86v41.13h-3.86z" fill="url(#d)" transform="rotate(45 114.919 60.02)"/><path d="M115.48 48.64H121v29.39h-5.52z" fill="url(#e)" transform="rotate(45 118.244 63.338)"/><path d="M108.72 82.91l-1.27-4.87 25.49-25.49 4.87 1.27z" fill="url(#f)"/><path d="M108.72 82.91l4.87 1.27 25.49-25.48-1.27-4.88z" fill="url(#g)"/><path d="M77.13 3.59h3.86v41.13h-3.86z" fill="url(#h)" transform="rotate(-135 79.06 24.161)"/><path d="M72.98 6.14h5.52v29.39h-5.52z" fill="url(#i)" transform="rotate(-135 75.741 20.844)"/><path d="M56.17 30.36l4.87 1.27L86.53 6.14l-1.27-4.87z" fill="url(#j)"/><path d="M56.17 30.36l-1.27-4.87L80.39 0l4.87 1.27z" fill="url(#k)"/><path d="M20.67 109.82s-.44 2.67 2.61 5.81 5.83 2.64 5.83 2.64L88.4 59s.31-2.7-2.58-5.67A8.17 8.17 0 0 0 80 50.54z" fill="url(#l)"/><path d="M68.13 97.1c-11.43 8.46-41.54 1.52-52.94-5.1l11.4-15.36s30.16 24.26 46 17.34z" fill="url(#m)"/><path d="M138.72 55.44c-17.67 24.27-82.24-24-91.41-12.06L52.68 35C75 4.25 126.08 46 136.9 25.14z" fill="url(#n)"/><path d="M94.62 65.21c-18.16 3.64-23.41-8.61-38.45-12.66C41.67 48.64 14.2 52.93 0 65l7.05 21.13C21.25 74.07 42.35 63.78 57.22 66s24.49 8.15 42.66 4.52z" fill="url(#o)"/><path d="M85.65 12.81l9.75 12.71S114 11.93 120.51 20c-1.94-3.87-4.55-8.29-4.55-8.29s-7.59-9.98-30.31 1.1z" fill="url(#p)"/></svg>