<svg xmlns="http://www.w3.org/2000/svg" viewBox="0 0 165.85 152.91"><defs><style>.f9a31b44-1421-4e70-b7f5-aa7a15e2c581{fill:none}</style><clipPath id="bff2776e-ff38-4a10-aa7c-e783c79bebec"><path class="f9a31b44-1421-4e70-b7f5-aa7a15e2c581" d="M17.81 56.49c16.41-.77 26.61 10.43 41.69 21.63 17.08 12.69 40.42 25.39 86.12 20.65l2.43-31.6C63.83 99.65 65.53 43.11 22.93 42.73z"/></clipPath><linearGradient id="fbb26ef1-f152-4741-8b11-4b379302522c" x1="16.91" y1="152.93" x2="17.91" y2="152.93" gradientTransform="matrix(0 -210.2 -210.2 0 32227.44 3694.77)" gradientUnits="userSpaceOnUse"><stop offset="0" stop-color="#048dce"/><stop offset=".02" stop-color="#008acd"/><stop offset=".2" stop-color="#2e77ab"/><stop offset=".6" stop-color="#00a2dd"/><stop offset="1" stop-color="#1687c9"/></linearGradient><clipPath id="beb93e5a-402a-48b5-acbd-cc83ac9526f6"><path class="f9a31b44-1421-4e70-b7f5-aa7a15e2c581" d="M89.44 49.13c-10.73-3.42-21.2 2.39-32.65 8.2-11.81 6-24.65 12-39.88 7.83l9.65 25.6C58.62 86 68.73 51.63 90 60.13c28.79 11.51 47.51 7.92 57.41-6.39l-3.48-17.64c-9.91 14.31-33.46 19.75-54.49 13"/></clipPath><linearGradient id="fbdf2535-a673-4bdb-adec-22e3bcf4e117" x1="16.91" y1="152.9" x2="17.91" y2="152.9" gradientTransform="matrix(129.72 0 0 -129.72 -2173.46 19897.67)" gradientUnits="userSpaceOnUse"><stop offset="0" stop-color="#f5665b"/><stop offset=".2" stop-color="#ee7f40"/><stop offset=".6" stop-color="#cf4f45"/><stop offset="1" stop-color="#f45a49"/></linearGradient><linearGradient id="abee949d-a3bb-4cfa-af13-eb25e20e5886" x1="18.26" y1="-38.46" x2="107.6" y2="116.44" gradientUnits="userSpaceOnUse"><stop offset="0" stop-color="#bf8145"/><stop offset=".06" stop-color="#ac7043"/><stop offset=".14" stop-color="#bb8846"/><stop offset=".28" stop-color="#c78b46"/><stop offset=".44" stop-color="#fada73"/><stop offset=".56" stop-color="#f5d36a"/><stop offset=".62" stop-color="#fada73"/><stop offset=".76" stop-color="#d89b44"/><stop offset=".88" stop-color="#ddb058"/><stop offset="1" stop-color="#9d613f"/></linearGradient><clipPath id="aa2a8b40-bcd4-4a9a-90bf-767fed9b26c3"><path class="f9a31b44-1421-4e70-b7f5-aa7a15e2c581" d="M30.78 150.5c0 1.33 20.34 2.41 45.43 2.41s45.44-1.08 45.44-2.41-20.34-2.41-45.44-2.41-45.43 1.08-45.43 2.41"/></clipPath><radialGradient id="e50c8aca-3b8f-4b7d-a88d-3b22b42b66cc" cx="16.91" cy="152.91" r="1" gradientTransform="matrix(45.44 0 0 -2.41 -692.01 518.74)" gradientUnits="userSpaceOnUse"><stop offset="0" stop-color="#a8a7a7"/><stop offset=".18" stop-color="#b7b6b6"/><stop offset=".27" stop-color="#c7c6c6"/><stop offset=".44" stop-color="#dfdfdf"/><stop offset=".61" stop-color="#f1f1f1"/><stop offset=".79" stop-color="#fcfcfc"/><stop offset="1" stop-color="#fff"/></radialGradient></defs><g id="f9a27ea0-f783-4554-8fcb-c8fe0406778a" data-name="Слой 2"><g id="bf59eae5-cfd3-4dfb-a3e8-b68dcb3ff177" data-name="Layer 1"><g clip-path="url(#bff2776e-ff38-4a10-aa7c-e783c79bebec)"><path transform="rotate(-72.06 82.933 73.123)" fill="url(#fbb26ef1-f152-4741-8b11-4b379302522c)" d="M33.96 1.81h97.93v142.63H33.96z"/></g><g clip-path="url(#beb93e5a-402a-48b5-acbd-cc83ac9526f6)"><path transform="rotate(-16.8 82.15 63.405)" fill="url(#fbdf2535-a673-4bdb-adec-22e3bcf4e117)" d="M11.79 18.41H152.5v90.04H11.79z"/></g><path d="M65.51 99.65q0-11.64 2.63-18.38a28.74 28.74 0 0 1 8.53-11.69 55.85 55.85 0 0 0 9-9 14.75 14.75 0 0 0 3.07-9.05q0-12-10.36-12A9.63 9.63 0 0 0 70.61 43q-3 3.51-3.11 9.49h-27q.16-16 10.05-24.85t27.8-8.94q17.78 0 27.55 8.22t9.77 23.36a27.3 27.3 0 0 1-2.63 12 40.81 40.81 0 0 1-8.45 11.08l-9.18 8.53A21.67 21.67 0 0 0 90 89.64a30.35 30.35 0 0 0-1.67 10zm-3.27 24.24a12.4 12.4 0 0 1 4.26-9.69 15.49 15.49 0 0 1 10.65-3.78 15.49 15.49 0 0 1 10.65 3.78 13.15 13.15 0 0 1 0 19.38 15.45 15.45 0 0 1-10.65 3.79 15.45 15.45 0 0 1-10.65-3.79 12.37 12.37 0 0 1-4.26-9.69" fill="url(#abee949d-a3bb-4cfa-af13-eb25e20e5886)"/><path class="f9a31b44-1421-4e70-b7f5-aa7a15e2c581" d="M16.91 18.7h131.14v134.21H16.91z"/><g clip-path="url(#aa2a8b40-bcd4-4a9a-90bf-767fed9b26c3)"><path fill="url(#e50c8aca-3b8f-4b7d-a88d-3b22b42b66cc)" d="M30.78 148.09h90.87v4.82H30.78z"/></g></g></g></svg>