<svg xmlns="http://www.w3.org/2000/svg" xmlns:xlink="http://www.w3.org/1999/xlink" viewBox="0 0 591.39 650.58"><defs><linearGradient id="b" x1="558.73" y1="489.86" x2="416.49" y2="347.62" gradientTransform="rotate(-76.39 525.646 467.843)" gradientUnits="userSpaceOnUse"><stop offset="0" stop-color="#d6645a"/><stop offset=".2" stop-color="#d37d45"/><stop offset=".6" stop-color="#b34f46"/><stop offset="1" stop-color="#d45949"/></linearGradient><linearGradient id="c" x1="159.42" y1="478.91" x2="165.43" y2="124.41" gradientUnits="userSpaceOnUse"><stop offset="0" stop-color="#4e8aca"/><stop offset=".02" stop-color="#4988c8"/><stop offset=".2" stop-color="#4c76a6"/><stop offset=".6" stop-color="#44a0d9"/><stop offset="1" stop-color="#4d84c5"/></linearGradient><linearGradient id="a" x1="948.15" y1="477.91" x2="537.3" y2="469.88" gradientTransform="matrix(-.49 -.87 -.87 .49 1109.43 588.45)" gradientUnits="userSpaceOnUse"><stop offset="0" stop-color="#a2692a"/><stop offset=".12" stop-color="#dfb253"/><stop offset=".21" stop-color="#ffffc0"/><stop offset=".29" stop-color="#f8ed9e"/><stop offset=".4" stop-color="#d1af5f"/><stop offset=".48" stop-color="#f8ed9e"/><stop offset=".64" stop-color="#d2a045"/><stop offset=".73" stop-color="#d1af5f"/><stop offset=".82" stop-color="#bc8a3c"/><stop offset=".92" stop-color="#bc8a3c"/><stop offset="1" stop-color="#a0682a"/></linearGradient><linearGradient id="d" x1="544.66" y1="553.25" x2="951.99" y2="553.25" xlink:href="#a"/><linearGradient id="e" x1="183.71" y1="174.35" x2="458" y2="174.35" xlink:href="#a"/><linearGradient id="f" x1="-32" y1="536.93" x2="-31.52" y2="508.18" gradientTransform="rotate(60.75 316.927 817.804)" xlink:href="#a"/><linearGradient id="g" x1="351.93" y1="589.71" x2="674.93" y2="407.42" xlink:href="#a"/><linearGradient id="h" x1="486.33" y1="561.57" x2="378.98" y2="454.21" xlink:href="#b"/><linearGradient id="i" x1="309.38" y1="422.36" x2="292.59" y2="507.45" xlink:href="#c"/><linearGradient id="j" x1="394.5" y1="450.44" x2="390.81" y2="545.96" xlink:href="#c"/><linearGradient id="k" x1="644.44" y1="448.63" x2="477.76" y2="281.94" xlink:href="#b"/></defs><g data-name="Слой 2"><g data-name="Слой 1"><path d="M576.64 477.53c-8.5-30.62-116.16 6.55-116.16 6.55S373.67 511 352 494.62c10.19 9 16.49 15.64 24.8 22.46 11.43 9.39 59.65-.07 89-7.35s109.72-39.16 118-16.4c-5.07-8.99-5.8-10.92-7.16-15.8z" fill="url(#b)"/><path d="M325.15 484.84c-60.68-.71-127.45-19-89-104.86 47.74-106.52 15.58-170.52-43.79-223.9C121 91.91 55.14 97 55.14 97L0 100.49c89.18 3 249.38 90.56 185.19 225.82-42 88.43-30.79 126.7 3.83 142.61s136.13 15.92 136.13 15.92z" fill="url(#c)"/><path d="M216.68 13.74C259.41-6.91 340.67 48.26 398.19 137S467.73 314.33 425 335l-48.61 23.5c42.73-20.65 30.71-109.29-26.81-198S210.8 16.59 168.07 37.24z" fill="url(#a)"/><path d="M380 368.76c-45.15 21.83-131-36.49-191.86-130.25s-73.55-187.46-28.4-209.29l51-24.65C165.59 26.4 178.29 120.1 239.1 213.86S385.81 365.93 431 344.11z" fill="url(#d)"/><path d="M210.74 4.58c-45.13 21.82-32.44 115.51 28.37 209.27S385.83 365.93 431 344.12s32.45-115.55-28.36-209.3S255.9-17.25 210.74 4.58zm5.94 9.16C259.41-6.91 340.67 48.26 398.19 137S467.73 314.33 425 335s-124-34.6-181.48-123.29S174 34.38 216.68 13.74z" fill="url(#e)"/><path d="M400.37 388.35l-14.54-22.42s-4.85-5.95 4.86-6.5 21.11-6.05 21.11-6.05l14.54 22.42z" fill="url(#f)"/><path d="M547.81 631.36L392.63 392.09l41.43-20 155.18 239.25s8.7 15.68-10.89 25.15-30.54-5.13-30.54-5.13z" fill="url(#g)"/><path d="M216.68 13.74c14.9-2.86 91.41 25 164.73 130.71 83.59 120.48 43.87 194.09 43.87 194.09s-84.67 21.66-179.94-124C145.36 61.56 207 20.45 216.68 13.74z" fill="#fff"/><path d="M583.75 493.33c28.62 52.17-30.06 127.46-63 157.25l-44.38-46s111.2-73.85 100.32-127.08z" fill="url(#h)"/><path d="M191.11 468.92c32.48 10.23 102.31 3.47 148.51-11.41 0 0 43.58.37 61.67 5.81 12.84 3.87.3 13 6.28 14.2-18.21-6.35-55.8 7.57-80.32 7.31-96.53-1.04-136.14-15.91-136.14-15.91z" fill="url(#i)"/><path d="M337.38 459.89c60.54 1.85 79.81 14.63 38.83 72.22-30.07 42.28-45.21 49.47-45.21 49.47l61.67 27.19s80.51-64.94 51.46-118C417.41 442 362.9 457 337.38 459.89z" fill="url(#j)"/><path d="M549 370.87c-149.24 37.55-206.46 109.55-172.21 146.21L352 494.62C262.57 404 435.23 335 503.72 314.44z" fill="url(#k)"/></g></g></svg>