<svg viewBox="0 0 184 155.73" xmlns="http://www.w3.org/2000/svg" xmlns:xlink="http://www.w3.org/1999/xlink"><linearGradient id="a" gradientUnits="userSpaceOnUse" x1="6.51" x2="1.05" y1="143.65" y2="17.05"><stop offset="0" stop-color="#f5655a"/><stop offset=".2" stop-color="#ee7f40"/><stop offset=".6" stop-color="#cf4f45"/><stop offset="1" stop-color="#f45a48"/></linearGradient><linearGradient id="c" x1="83.99" x2="82.91" xlink:href="#a" y1="18.68" y2="-6.34"/><linearGradient id="d" x1="78.64" x2="-6.81" xlink:href="#a" y1="-5.33" y2="58.48"/><linearGradient id="b" gradientTransform="rotate(180 87.44 39.33)" gradientUnits="userSpaceOnUse" x1="-2.6" x2="-8.07" y1="81.19" y2="-45.4"><stop offset="0" stop-color="#048dce"/><stop offset=".02" stop-color="#008acd"/><stop offset=".2" stop-color="#2e77ab"/><stop offset=".6" stop-color="#00a2dd"/><stop offset="1" stop-color="#1687c9"/></linearGradient><linearGradient id="e" gradientUnits="userSpaceOnUse" x1="82.56" x2="140.52" y1="120.59" y2="177.23"><stop offset="0" stop-color="#048dce"/><stop offset=".02" stop-color="#008acd"/><stop offset=".2" stop-color="#2e77ab"/><stop offset=".26" stop-color="#217eb2"/><stop offset=".6" stop-color="#00a2dd"/><stop offset="1" stop-color="#1687c9"/></linearGradient><linearGradient id="f" x1="108.01" x2="238.14" xlink:href="#b" y1="153.84" y2="23.88"/><path d="M0 72s0 10.65 6.39 13.46v-24S0 57.39 0 46.24z" fill="url(#a)"/><path d="M69.43 0s11.34.55 11.95 6.61h15.85A11.78 11.78 0 0 0 86.77 0z" fill="url(#c)"/><path d="M178.06 44.09v72.78a17.62 17.62 0 0 1-17.61 17.61v21.25l-31.27-21.25h-81.1a17.6 17.6 0 0 1-17.62-17.61V44.09a17.62 17.62 0 0 1 17.62-17.61h112.37a17.62 17.62 0 0 1 17.61 17.61z" fill="#f0efef"/><path d="M154.65 29.83v72.77A17.62 17.62 0 0 1 137 120.22H57.58l-17.64 12.27a17.59 17.59 0 0 1-9.48-15.62V44.09a17.62 17.62 0 0 1 17.62-17.61h106.25a17.62 17.62 0 0 1 .32 3.35z" fill="#dcdcdc"/><path d="M131.59 114.61H55.27L24 135.85v-21.24A17.62 17.62 0 0 1 6.39 97V24.22A17.61 17.61 0 0 1 24 6.61h107.59a17.6 17.6 0 0 1 17.61 17.61V97a17.61 17.61 0 0 1-17.61 17.61z" fill="#f0efef"/><path d="M0 46.24C-.86 38.53 31.94 0 66.07 0h20.7c-13.42 0-31.29 4-53 23.12C17 37.88 1.58 54.14 0 72V46.24z" fill="url(#d)"/><path d="M184 69.11s0-10.65-6.39-13.46v24s6.37 4 6.37 15.19C184 81 184 69.11 184 69.11z" fill="url(#b)"/><path d="M114.57 141.11s-11.34-.55-11.95-6.61H86.77a11.78 11.78 0 0 0 10.46 6.61z" fill="url(#e)"/><path d="M184 94.87c.88 7.71-31.92 46.24-66 46.24H97.23c13.41 0 31.29-4 53-23.12C167 103.23 182.41 87 184 69.11z" fill="url(#f)"/></svg>