<svg xmlns="http://www.w3.org/2000/svg" xmlns:xlink="http://www.w3.org/1999/xlink" viewBox="0 0 139.08 118.3"><defs><linearGradient id="c" x1="113.71" y1="37.67" x2="131.47" y2="-28.47" gradientUnits="userSpaceOnUse"><stop offset="0" stop-color="#048dce"/><stop offset=".02" stop-color="#008acd"/><stop offset=".2" stop-color="#2e77ab"/><stop offset=".6" stop-color="#00a2dd"/><stop offset="1" stop-color="#1687c9"/></linearGradient><linearGradient id="b" x1="80.61" y1="86.27" x2="41.03" y2="46.69" gradientUnits="userSpaceOnUse"><stop offset="0" stop-color="#f5655a"/><stop offset=".2" stop-color="#ee7f40"/><stop offset=".6" stop-color="#cf4f45"/><stop offset="1" stop-color="#f45a48"/></linearGradient><linearGradient id="a" x1="282.9" y1="185.46" x2="282.9" y2="148.33" gradientTransform="matrix(1 0 0 -1 -185.91 209.46)" gradientUnits="userSpaceOnUse"><stop offset="0" stop-color="#b66c43"/><stop offset=".12" stop-color="#f0b549"/><stop offset=".21" stop-color="#fdf8c2"/><stop offset=".29" stop-color="#fdef9c"/><stop offset=".4" stop-color="#e0b357"/><stop offset=".48" stop-color="#fdef9c"/><stop offset=".64" stop-color="#e2a241"/><stop offset=".73" stop-color="#e0b357"/><stop offset=".82" stop-color="#cd8d45"/><stop offset=".92" stop-color="#cd8d45"/><stop offset="1" stop-color="#b36b42"/></linearGradient><linearGradient id="d" x1="257.57" y1="187.8" x2="257.49" y2="140.81" gradientTransform="matrix(-1 0 0 1 372.46 -107.34)" xlink:href="#a"/><linearGradient id="e" x1="252.95" y1="182.05" x2="252.74" y2="152.76" gradientTransform="matrix(-1 0 0 1 371.08 -104.02)" xlink:href="#a"/><linearGradient id="f" x1="247.81" y1="188.12" x2="248.14" y2="114.1" gradientTransform="scale(-1 1) rotate(-45 -58.032 560.99)" xlink:href="#a"/><linearGradient id="g" x1="243.53" y1="188.12" x2="243.61" y2="147.17" gradientTransform="scale(-1 1) rotate(-45 -58.032 560.99)" xlink:href="#a"/><linearGradient id="h" x1="-219.32" y1="187.8" x2="-219.4" y2="140.81" gradientTransform="rotate(180 -70.15 95.765)" xlink:href="#a"/><linearGradient id="i" x1="-223.94" y1="182.05" x2="-224.16" y2="152.76" gradientTransform="rotate(180 -74.155 94.105)" xlink:href="#a"/><linearGradient id="j" x1="-229.08" y1="188.12" x2="-228.76" y2="114.1" gradientTransform="rotate(45 102.718 455.977)" xlink:href="#a"/><linearGradient id="k" x1="-233.37" y1="188.12" x2="-233.29" y2="147.17" gradientTransform="rotate(45 102.718 455.977)" xlink:href="#a"/><linearGradient id="l" x1="46.16" y1="76.17" x2="67.96" y2="97.75" xlink:href="#a"/><linearGradient id="m" x1="58.73" y1="107.85" x2="27.06" y2="76.18" xlink:href="#b"/><linearGradient id="n" x1="126.14" y1="68.29" x2="72.51" y2="14.67" xlink:href="#b"/><linearGradient id="o" x1="3.96" y1="68.04" x2="99.13" y2="70.64" xlink:href="#c"/><linearGradient id="p" x1="127.5" y1="2.52" x2="93.24" y2="22.01" xlink:href="#c"/></defs><g data-name="Слой 2"><g data-name="Слой 1"><path d="M112.37 31l5.08 5.85s6.32-10.53 3.06-16.84a63.46 63.46 0 0 0-4.51-8.28c1.93 6.49 3.61 11.73-3.63 19.27z" fill="url(#c)"/><path d="M72.58 94c9-4.58-9.58-30.66-9.58-30.66S49 42.09 52.68 35c-2.15 3.42-3.79 5.6-5.37 8.34-2.17 3.77 3.9 16 8.07 23.32S74.67 93.17 68.13 97.1a19.85 19.85 0 0 1 4.45-3.1z" fill="url(#b)"/><path transform="rotate(-135 96.991 42.093)" fill="url(#a)" d="M73.56 24.07h46.85v36.05H73.56z"/><path transform="rotate(45 114.919 60.02)" fill="url(#d)" d="M112.99 39.46h3.86v41.13h-3.86z"/><path transform="rotate(45 118.244 63.338)" fill="url(#e)" d="M115.48 48.64H121v29.39h-5.52z"/><path fill="url(#f)" d="M108.72 82.91l-1.27-4.87 25.49-25.49 4.87 1.27-29.09 29.09z"/><path fill="url(#g)" d="M108.72 82.91l4.87 1.27 25.49-25.48-1.27-4.88-29.09 29.09z"/><path transform="rotate(-135 79.06 24.161)" fill="url(#h)" d="M77.13 3.59h3.86v41.13h-3.86z"/><path transform="rotate(-135 75.741 20.844)" fill="url(#i)" d="M72.98 6.14h5.52v29.39h-5.52z"/><path fill="url(#j)" d="M56.17 30.36l4.87 1.27L86.53 6.14l-1.27-4.87-29.09 29.09z"/><path fill="url(#k)" d="M56.17 30.36l-1.27-4.87L80.39 0l4.87 1.27-29.09 29.09z"/><path d="M20.67 109.82s-.44 2.67 2.61 5.81 5.83 2.64 5.83 2.64L88.4 59s.31-2.7-2.58-5.67A8.17 8.17 0 0 0 80 50.54z" fill="url(#l)"/><path d="M68.13 97.1c-11.43 8.46-41.54 1.52-52.94-5.1l11.4-15.36s30.16 24.26 46 17.34z" fill="url(#m)"/><path d="M138.72 55.44c-17.67 24.27-82.24-24-91.41-12.06L52.68 35C75 4.25 126.08 46 136.9 25.14z" fill="url(#n)"/><path d="M94.62 65.21c-18.16 3.64-23.41-8.61-38.45-12.66C41.67 48.64 14.2 52.93 0 65l7.05 21.13C21.25 74.07 42.35 63.78 57.22 66s24.49 8.15 42.66 4.52z" fill="url(#o)"/><path d="M85.65 12.81l9.75 12.71S114 11.93 120.51 20c-1.94-3.87-4.55-8.29-4.55-8.29s-7.59-9.98-30.31 1.1z" fill="url(#p)"/></g></g></svg>