<svg viewBox="0 0 89.65 95.19" xmlns="http://www.w3.org/2000/svg" xmlns:xlink="http://www.w3.org/1999/xlink"><linearGradient id="a" gradientUnits="userSpaceOnUse" x1="5.47" x2="5.59" y1="8.06" y2="28.44"><stop offset="0" stop-color="#048dce"/><stop offset=".02" stop-color="#008acd"/><stop offset=".2" stop-color="#2e77ab"/><stop offset=".6" stop-color="#00a2dd"/><stop offset="1" stop-color="#1687c9"/></linearGradient><linearGradient id="c" x1="13.79" x2="7.29" xlink:href="#a" y1="45.46" y2="4.06"/><linearGradient id="b" gradientUnits="userSpaceOnUse" x1="60.69" x2="60.25" y1="-9.34" y2="6.19"><stop offset="0" stop-color="#f5655a"/><stop offset=".2" stop-color="#ee7f40"/><stop offset=".6" stop-color="#cf4f45"/><stop offset="1" stop-color="#f45a48"/></linearGradient><linearGradient id="d" x1="65.66" x2="66.48" xlink:href="#b" y1="-.92" y2="32.6"/><path d="M.81 14a3.42 3.42 0 0 1 3.3-3l6.08-.26L9 13.35z" fill="url(#a)"/><path d="M68 88.27l-53.9 6.92C-2 70 .09 14.07.09 14.07l11.14-.81c12.11-.89 31.4-2.33 44.05-3.38-1.84 41.59 6.59 65.4 10.72 74.31a37.55 37.55 0 0 0 2 4.08z" fill="#f0efef"/><path d="M66 84.19L25.37 90C11.93 69.1 11.13 26.86 11.23 13.26c12.11-.89 31.4-2.33 44.05-3.38-1.84 41.59 6.59 65.4 10.72 74.31z" fill="#dcdcdc"/><path d="M19.11 12.13c0 15.71 1.45 54.5 14.14 74.28l56.4-8.14S71.19 54.5 74.39 1.1c-14.57 1.2-37.93 2.9-49 3.74 0 0-6.28 7.08-6.28 7.29z" fill="#f0efef"/><path d="M25.39 4.84l-6.28 7.29 6.5.14z" fill="#f0efef"/><path d="M24.58 13.6l-5.47-1.47 5.63.12z" fill="#dcdcdc"/><path d="M4.11 11c1.4.41 5.53 2.39 3.88 9.25S5.92 37.3 9 43a30.9 30.9 0 0 1 2.72-3l4.87 2.48a19.74 19.74 0 0 1-3.05-14.7c2.31-13.51.35-17-2.54-17-3.16.15-6.89.22-6.89.22z" fill="url(#c)"/><path d="M54.38 2.68s-.15-2 2.9-2S66.4 0 66.4 0L66 1.77z" fill="url(#b)"/><path d="M57.28.64c2.8-.22 6.64-.47 9.91-.64s5.34 6.36 4.29 14.84c-1.13 9.16.46 22.32 3.64 26.53-6.83-2.2-8-3.91-8-3.91l-3.64 8.09s-4.7-7.1-3.66-20.25C61.43 4.92 59.59.69 57.28.64z" fill="url(#d)"/></svg>