<svg xmlns="http://www.w3.org/2000/svg" viewBox="0 0 296.3 295.74"><defs><clipPath id="a"><path fill="none" d="M0 0h296.3v295.74H0z"/></clipPath></defs><g data-name="Слой 2"><g clip-path="url(#a)" data-name="Слой 1"><path d="M24.78 228.74L6.4 289.86 0 283.41l19.48-71.68v10.46a5.74 5.74 0 0 0 .87 3 9.89 9.89 0 0 0 4.43 3.54M75.81 4.44l76.95 82.08a139.69 139.69 0 0 0-14.93 1.8L83.48 33.58 67.41 87l-3.41.32c-3.89.39-7.55.67-10.94.84zM252.97 193.4l-8.54 2.26-10.95-11.03v-12.02l19.49 20.79z" fill="#c95144"/><path d="M84.85 86.11c-3 0-6.09.14-9.22.31l12-39.63 6.2 6.21zm209.09 127.73l-2.19 8.07-279.51 73.83 19.65-64.88a77.11 77.11 0 0 0 13.34 1.07l-11.58 42.6L220.37 231h.08l4.89-1.14z" fill="#6687c2"/><path d="M163.44 86.1L84.91 2l7.7-2 85.88 86.48c-4.41-.26-8.73-.39-12.91-.39h-2.14m2.14 143.58c6.79 0 13.95.37 21.33 1.08L42 264.69l2.4-8.69 82.74-21.83a5.31 5.31 0 0 0 1.37.18 5.73 5.73 0 0 0 2-.36c.11 0 11.82-4.31 35.08-4.31m130.71-24.55l-62.82 14.72v-13.74l33.75-8.9-33.75-36.13v-19.21l62.82 63.26zm-70.96 24.7a36.35 36.35 0 0 1-4.89 1.14zm-200.19-7.64s4.12 6.57 39.41 3c40.22-4.05 59.91 3.47 59.91 3.47V96.44S104.78 88.91 64.56 93c-35.29 3.56-39.41-3-39.41-3zm202.66 0s-4.12 6.57-39.41 3c-40.22-4.05-59.91 3.47-59.91 3.47V96.44s19.69-7.53 59.91-3.44c35.29 3.56 39.41-3 39.41-3z" fill="#fff"/></g></g></svg>