<svg xmlns="http://www.w3.org/2000/svg" xmlns:xlink="http://www.w3.org/1999/xlink" viewBox="0 0 296.3 295.74"><defs><style>.cls-1{fill:none;}.cls-2{clip-path:url(#clip-path);}.cls-3{fill:#c95144;}.cls-4{fill:#6687c2;}.cls-5{fill:#fff;}</style><clipPath id="clip-path" transform="translate(0)"><rect class="cls-1" width="296.3" height="295.74"/></clipPath></defs><title>Ресурс 1</title><g id="Слой_2" data-name="Слой 2"><g id="Слой_1-2" data-name="Слой 1"><g class="cls-2"><path class="cls-3" d="M24.78,228.74,6.4,289.86,0,283.41l19.48-71.68v10.46a5.74,5.74,0,0,0,.87,3,9.89,9.89,0,0,0,4.43,3.54" transform="translate(0)"/><path class="cls-3" d="M75.81,4.44l76.95,82.08a139.69,139.69,0,0,0-14.93,1.8L83.48,33.58,67.41,87,64,87.32c-3.89.39-7.55.67-10.94.84Z" transform="translate(0)"/><polygon class="cls-3" points="252.97 193.4 244.43 195.66 233.48 184.63 233.48 172.61 252.97 193.4"/><path class="cls-4" d="M84.85,86.11c-3,0-6.09.14-9.22.31l12-39.63L93.83,53Z" transform="translate(0)"/><path class="cls-4" d="M293.94,213.84l-2.19,8.07L12.24,295.74l19.65-64.88a77.11,77.11,0,0,0,13.34,1.07l-11.58,42.6L220.37,231l.08,0,4.89-1.14Z" transform="translate(0)"/><path class="cls-5" d="M163.44,86.1,84.91,2l7.7-2,85.88,86.48c-4.41-.26-8.73-.39-12.91-.39h-2.14" transform="translate(0)"/><path class="cls-5" d="M165.58,229.67c6.79,0,13.95.37,21.33,1.08L42,264.69,44.4,256l82.74-21.83a5.31,5.31,0,0,0,1.37.18,5.73,5.73,0,0,0,2-.36c.11,0,11.82-4.31,35.08-4.31" transform="translate(0)"/><polygon class="cls-5" points="296.3 205.13 233.48 219.85 233.48 206.11 267.23 197.21 233.48 161.08 233.48 141.87 296.3 205.13"/><path class="cls-5" d="M225.34,229.83a36.35,36.35,0,0,1-4.89,1.14Z" transform="translate(0)"/><path class="cls-5" d="M25.15,222.19s4.12,6.57,39.41,3c40.22-4.05,59.91,3.47,59.91,3.47V96.44S104.78,88.91,64.56,93c-35.29,3.56-39.41-3-39.41-3Z" transform="translate(0)"/><path class="cls-5" d="M227.81,222.19s-4.12,6.57-39.41,3c-40.22-4.05-59.91,3.47-59.91,3.47V96.44S148.18,88.91,188.4,93c35.29,3.56,39.41-3,39.41-3Z" transform="translate(0)"/></g></g></g></svg>