<svg xmlns="http://www.w3.org/2000/svg" viewBox="0 0 0.713 0.891" fill-rule="evenodd" clip-rule="evenodd" shape-rendering="geometricPrecision" text-rendering="geometricPrecision" image-rendering="optimizeQuality"><path d="M.357 0c.098 0 .187.04.252.104a.36.36 0 0 1 0 .505.359.359 0 0 1-.505 0 .359.359 0 0 1 0-.505A.36.36 0 0 1 .357 0zM.323.181l.176.176-.176.175L.278.487l.129-.13-.129-.13.045-.046zM.563.15a.29.29 0 1 0-.206.498.29.29 0 0 0 .291-.291A.29.29 0 0 0 .563.15z" fill="#007dc8" fill-rule="nonzero"/></svg>