<svg xmlns="http://www.w3.org/2000/svg" xmlns:xlink="http://www.w3.org/1999/xlink" viewBox="0 0 593.76 728.17"><defs><style>.aa908285-4c04-4954-877a-3f0f4b4718f1{fill:url(#a1867ce1-583e-45dd-93df-7f631dccab0c);}.a21976a5-79ea-4aca-a394-1f4a96599c3c{fill:url(#ad0437dd-8abe-43eb-8a51-ade6cc622850);}.aecf6e84-d77e-4f6a-a8d8-d64ffcaf87b0{fill:url(#ba91ee3d-ac9d-4707-af1a-8312d4467829);}.bc9aad81-e080-44df-94b5-f3a4b5f27906{fill:url(#bf2c5491-1682-4ebc-834b-2230a6fa18d1);}.be91e671-649b-4836-b03f-70d5b28e7fff{fill:none;}.b7d4ba19-b908-4954-b513-9a53c754b10a{fill:url(#ba67a999-b8e1-47de-8205-429405c37f77);}.a024944d-98cd-47b2-8cb8-e0427610687a{fill:url(#a436fa8d-4246-4485-85dd-3129efe3d032);}.bb630bbb-91cb-4565-ad99-f09e35c31b24{fill:#fff;}.f81385e0-303e-44e2-8ae4-b36c01e348d1{fill:#403f41;}.ffae986d-af7c-4a89-b263-b0dba0b52933{fill:url(#a5b3edfd-90eb-452e-9fc4-8736fa55e20d);}.ae0d8804-8dbc-4fac-bb57-672037d2f25a{fill:url(#ba7edef4-0270-4bfa-9fd1-4972e810187e);}.e8a17142-d005-4302-92bf-59fb8eb30a63{fill:url(#ae2c408f-3753-4cce-9e65-c09afbb2f295);}</style><linearGradient id="a1867ce1-583e-45dd-93df-7f631dccab0c" x1="417.13" y1="752.68" x2="638.05" y2="968.56" gradientTransform="matrix(-0.24, -0.97, -0.97, 0.24, 1075.58, 856.65)" gradientUnits="userSpaceOnUse"><stop offset="0" stop-color="#4e8aca"/><stop offset="0.02" stop-color="#4988c8"/><stop offset="0.2" stop-color="#4c76a6"/><stop offset="0.26" stop-color="#4c7dad"/><stop offset="0.6" stop-color="#44a0d9"/><stop offset="1" stop-color="#4d84c5"/></linearGradient><linearGradient id="ad0437dd-8abe-43eb-8a51-ade6cc622850" x1="314.44" y1="412.55" x2="124.19" y2="222.3" gradientUnits="userSpaceOnUse"><stop offset="0" stop-color="#d6645a"/><stop offset="0.2" stop-color="#d37d45"/><stop offset="0.6" stop-color="#b34f46"/><stop offset="1" stop-color="#d45949"/></linearGradient><linearGradient id="ba91ee3d-ac9d-4707-af1a-8312d4467829" x1="209.26" y1="516.27" x2="57.05" y2="364.06" xlink:href="#ad0437dd-8abe-43eb-8a51-ade6cc622850"/><linearGradient id="bf2c5491-1682-4ebc-834b-2230a6fa18d1" x1="533.31" y1="326.13" x2="275.53" y2="68.35" xlink:href="#ad0437dd-8abe-43eb-8a51-ade6cc622850"/><linearGradient id="ba67a999-b8e1-47de-8205-429405c37f77" x1="142.52" y1="-18.31" x2="372.19" y2="678.11" gradientUnits="userSpaceOnUse"><stop offset="0.04" stop-color="#a0854d"/><stop offset="0.26" stop-color="#faf1b6"/><stop offset="0.28" stop-color="#ecda9c"/><stop offset="0.31" stop-color="#ddc280"/><stop offset="0.33" stop-color="#d4b36f"/><stop offset="0.35" stop-color="#d1ae69"/><stop offset="0.44" stop-color="#cfad68"/><stop offset="0.64" stop-color="#744e2b"/><stop offset="0.82" stop-color="#e9dd84"/><stop offset="0.93" stop-color="#a48c4d"/><stop offset="1" stop-color="#7a5b2b"/></linearGradient><linearGradient id="a436fa8d-4246-4485-85dd-3129efe3d032" x1="52.96" y1="78.94" x2="572.1" y2="760.02" xlink:href="#ba67a999-b8e1-47de-8205-429405c37f77"/><linearGradient id="a5b3edfd-90eb-452e-9fc4-8736fa55e20d" x1="353.6" y1="376.84" x2="382.18" y2="740.4" gradientTransform="translate(951.66 171.86) rotate(80.73)" xlink:href="#ba67a999-b8e1-47de-8205-429405c37f77"/><linearGradient id="ba7edef4-0270-4bfa-9fd1-4972e810187e" x1="-111.84" y1="465.76" x2="-130.47" y2="34.64" gradientTransform="translate(350.84 681.83) rotate(180)" gradientUnits="userSpaceOnUse"><stop offset="0" stop-color="#4e8aca"/><stop offset="0.02" stop-color="#4988c8"/><stop offset="0.2" stop-color="#4c76a6"/><stop offset="0.6" stop-color="#44a0d9"/><stop offset="1" stop-color="#4d84c5"/></linearGradient><linearGradient id="ae2c408f-3753-4cce-9e65-c09afbb2f295" x1="596.7" y1="513.68" x2="99.59" y2="552.1" gradientTransform="matrix(1, 0, 0, 1, 0, 0)" xlink:href="#ba7edef4-0270-4bfa-9fd1-4972e810187e"/></defs><title>Ресурс 1</title><g id="be15b09c-d36b-4594-a258-7a1cee57fb0e" data-name="Слой 2"><g id="f01272b7-f76c-438d-a886-1ef9c0b7ac1f" data-name="Слой 1"><path class="aa908285-4c04-4954-877a-3f0f4b4718f1" d="M139.11,532.08S167.62,572.8,187.89,570c3.64,14.94,4.3,53.42,4.3,53.42s-36.74-10-42.75-34.61C144.44,568.21,139.11,532.08,139.11,532.08Z"/><path class="a21976a5-79ea-4aca-a394-1f4a96599c3c" d="M275.84,449.69c43.07-22-46-147.36-46-147.36s-67.34-102.15-49.61-136c-10.32,16.4-18.2,26.91-25.8,40.08-10.45,18.13,18.74,76.87,38.77,112.06s92.72,127.28,61.31,146.13C266.32,454.85,269,453.2,275.84,449.69Z"/><path class="aecf6e84-d77e-4f6a-a8d8-d64ffcaf87b0" d="M254.47,464.58c-55,40.68-199.7,7.34-254.47-24.41l54.77-73.83s145,116.63,221.07,83.35Z"/><path class="bc9aad81-e080-44df-94b5-f3a4b5f27906" d="M593.76,264.34C508.82,381,198.45,149,154.39,206.39l25.8-40.08C287.6,18.26,533,219,585,118.68Z"/><polygon class="be91e671-649b-4836-b03f-70d5b28e7fff" points="229.73 728.17 70.75 0 349.36 64.92 501.63 636.47 229.73 728.17"/><path class="b7d4ba19-b908-4954-b513-9a53c754b10a" d="M492.44,610a60.93,60.93,0,0,1-1.68,15.82,36.18,36.18,0,0,1-5.57,12.35,19.54,19.54,0,0,1-9.19,7L299.5,704.63l-29.66,10a29,29,0,0,1-9.18,1.54H236a28.68,28.68,0,0,1-7-.87,38.34,38.34,0,0,1-15.29-7.93,56.72,56.72,0,0,1-12.59-15.19,65.68,65.68,0,0,1-5.29-11.63,68.84,68.84,0,0,1-2.69-9.28c-11-50.18-21.54-98.64-32.16-147.28-10.43-47.83-20.91-95.8-31.77-145.6-10.67-48.89-21.73-99.5-33.46-153.2C84.25,172.46,72.13,116.85,59.06,57.05a44,44,0,0,1-.63-16.83A25.77,25.77,0,0,1,64,27.92a20.56,20.56,0,0,1,4.35-3.87c.1-.06,22.21-12.2,22.58-12.43a21.46,21.46,0,0,1,5.47-2.3,29.51,29.51,0,0,1,14.51,0L322.47,58.63a33.62,33.62,0,0,1,11.35,5.44,54.85,54.85,0,0,1,10.62,9.85,75.11,75.11,0,0,1,8.85,13,71.16,71.16,0,0,1,5.86,14.76c17.93,67.24,30.67,115,40.67,152.61,10.14,38.07,17.4,65.38,24.51,92.15,7.21,27,14.23,53.41,24,90.08,9.91,37.16,22.65,85.08,41.49,155.79A75.37,75.37,0,0,1,492.44,610Z"/><path class="a024944d-98cd-47b2-8cb8-e0427610687a" d="M322.46,58.65,110.94,9.36a29.6,29.6,0,0,0-14.53,0A21.06,21.06,0,0,0,85.73,16a26.11,26.11,0,0,0-5.64,12.5,44.17,44.17,0,0,0,.63,17.13l37.34,171,34,155.87,32.34,148.1,32.71,149.83a73.5,73.5,0,0,0,8.13,21.27,57.22,57.22,0,0,0,12.81,15.47,38.74,38.74,0,0,0,15.52,8.06,28.94,28.94,0,0,0,16.25-.66L476,645.11a19.23,19.23,0,0,0,9.18-7,35.3,35.3,0,0,0,5.58-12.32A58.85,58.85,0,0,0,492.43,610a75.69,75.69,0,0,0-2.57-17.69L448.35,436.49l-24-90.08-24.54-92.14L359.15,101.68a69.07,69.07,0,0,0-5.89-14.78,73.7,73.7,0,0,0-8.8-13,57.91,57.91,0,0,0-10.63-9.88,33.21,33.21,0,0,0-11.37-5.4"/><polygon class="bb630bbb-91cb-4565-ad99-f09e35c31b24" points="103.47 45.55 236.49 649.7 466.41 586.93 338.04 93.67 103.47 45.55"/><path class="f81385e0-303e-44e2-8ae4-b36c01e348d1" d="M202.92,41.66l51.4,11.53a9.77,9.77,0,0,1,7.21,6.72h0a4.52,4.52,0,0,1-5.28,5.73l-51.57-11a9.81,9.81,0,0,1-7.41-7h0A4.77,4.77,0,0,1,202.92,41.66Z"/><ellipse class="ffae986d-af7c-4a89-b263-b0dba0b52933" cx="374.74" cy="645.73" rx="19.33" ry="17.34" transform="translate(-322.93 911.55) rotate(-80.73)"/><path class="ae0d8804-8dbc-4fac-bb57-672037d2f25a" d="M501.62,460.39s5.56-35.53-59-45.28c9.76,30.58,24.26,91.06,24.26,91.06s34.66,3.4,34.66,40.9C501.57,500.4,501.62,460.39,501.62,460.39Z"/><path class="e8a17142-d005-4302-92bf-59fb8eb30a63" d="M501.57,547.07c-4.18,46.83-115.62,49.8-175.85,27.52-52.54-19.43-159.08-31.79-174.88,19.31,0,0-8.3-48.76-12.92-66.75,0-21.7,78.73-75.5,209.71-11.34,68.14,33.39,148.67,4.66,154-55.42C501.62,480.4,501.57,547.07,501.57,547.07Z"/></g></g></svg>