<svg viewBox="0 0 106.44 113.51" xmlns="http://www.w3.org/2000/svg" xmlns:xlink="http://www.w3.org/1999/xlink"><linearGradient id="b" gradientUnits="userSpaceOnUse" x1="83.78" x2="116.7" y1="91.8" y2="95.66"><stop offset="0" stop-color="#4e8aca"/><stop offset=".02" stop-color="#4988c8"/><stop offset=".2" stop-color="#4c76a6"/><stop offset=".6" stop-color="#44a0d9"/><stop offset="1" stop-color="#4d84c5"/></linearGradient><linearGradient id="a" gradientUnits="userSpaceOnUse" x1="47.85" x2="27.71" y1="14.45" y2="16.76"><stop offset="0" stop-color="#d6645a"/><stop offset=".2" stop-color="#d37d45"/><stop offset=".6" stop-color="#b34f46"/><stop offset="1" stop-color="#d45949"/></linearGradient><clipPath id="c"><path d="M39.53 65.61l-1.37-.74h-.07l1.37.75z"/></clipPath><clipPath id="d"><path d="M23 89.4l-1.37-.74h-.08l1.37.74z"/></clipPath><clipPath id="e"><path d="M43 48.94l1.37.74a1.41 1.41 0 0 0-.87-.15h-.15L42 48.82a.4.4 0 0 1 .15 0 1.32 1.32 0 0 1 .85.12z"/></clipPath><clipPath id="f"><path d="M27.7 73.54l1.37.74a1.26 1.26 0 0 0-.61-.16l-1.37-.75a1.39 1.39 0 0 1 .61.17z"/></clipPath><clipPath id="g"><path d="M29.4 68.94L28 68.2a1.58 1.58 0 0 1-.76-1.52l1.37.75a1.55 1.55 0 0 0 .79 1.51z"/></clipPath><clipPath id="h"><path d="M34.35 52.31l1.37.74a3.15 3.15 0 0 1 .57.41 3.37 3.37 0 0 1 1 2.48 4.4 4.4 0 0 1-1 2.76l-1.38-.7a4.49 4.49 0 0 0 1-2.76 3.38 3.38 0 0 0-1-2.48 3.15 3.15 0 0 0-.56-.45z"/></clipPath><clipPath id="i"><path d="M32 59.8l-1.37-.75a2.91 2.91 0 0 0 .51.22 3.06 3.06 0 0 0 1.31.1A3.94 3.94 0 0 0 34.91 58l1.37.74a3.89 3.89 0 0 1-2.42 1.41 3.06 3.06 0 0 1-1.31-.1 2.87 2.87 0 0 1-.55-.25z"/></clipPath><clipPath id="j"><path d="M13.8 94l-1.36-.74a1.47 1.47 0 0 1-.74-1.1l1.36.74a1.46 1.46 0 0 0 .74 1.1z"/></clipPath><clipPath id="k"><path d="M36.89 43.2l1.37.74a1.66 1.66 0 0 0-.46-.15l-1.36-.74a1.14 1.14 0 0 1 .45.15z"/></clipPath><clipPath id="l"><path d="M28.82 65.31l-1.37-.75a7.75 7.75 0 0 1-2.57-2.4l1.37.74a7.49 7.49 0 0 0 2.57 2.41z"/></clipPath><clipPath id="m"><path d="M23.38 64.84l1.37.75a1.41 1.41 0 0 0-.88-.16 1.77 1.77 0 0 0-.94.46l-1.37-.75a1.87 1.87 0 0 1 .94-.45 1.46 1.46 0 0 1 .88.15z"/></clipPath><clipPath id="n"><path d="M34.14 44.8l-1.37-.74a2 2 0 0 1 1.51-1.27 1.87 1.87 0 0 1 .41 0l1.37.75a1.41 1.41 0 0 0-.41 0 2 2 0 0 0-1.51 1.26z"/></clipPath><clipPath id="o"><path d="M16.84 73.1l1.37.74A4.6 4.6 0 0 1 20.47 78a6.06 6.06 0 0 1-4.89 5.94l-1.37-.74a6.06 6.06 0 0 0 4.89-6 4.56 4.56 0 0 0-2.26-4.1z"/></clipPath><clipPath id="p"><path d="M13 83.47l-1.36-.75a4.16 4.16 0 0 0 2.6.46l1.37.74a4.27 4.27 0 0 1-2.61-.45z"/></clipPath><clipPath id="q"><path d="M23.3 63.23l-1.37-.74a1.44 1.44 0 0 1-.7-1l1.36.74a1.44 1.44 0 0 0 .71 1z"/></clipPath><clipPath id="r"><path d="M29.81 48.29l-1.37-.75A9.92 9.92 0 0 1 32 46l1.37.74a9.87 9.87 0 0 0-3.56 1.55z"/></clipPath><clipPath id="s"><path d="M6.46 91.73L5.09 91a1.12 1.12 0 0 1-.29-.21l1.37.75a1.54 1.54 0 0 0 .29.19z"/></clipPath><clipPath id="t"><path d="M18.5 66.66l-1.37-.74a9 9 0 0 1 2.65.82l1.37.74a9 9 0 0 0-2.65-.82z"/></clipPath><clipPath id="u"><path d="M24.84 57.12l-1.37-.74a11.42 11.42 0 0 1 .94-3.91l1.37.74a11.25 11.25 0 0 0-.94 3.91z"/></clipPath><clipPath id="v"><path d="M22.14 60.47l-1.37-.74a2.09 2.09 0 0 1 .92-2.2l1.37.75a2.08 2.08 0 0 0-.92 2.19z"/></clipPath><clipPath id="w"><path d="M4.89 90.32l-1.37-.74a1.83 1.83 0 0 1-.18-2.24l1.37.74a1.82 1.82 0 0 0 .18 2.24z"/></clipPath><clipPath id="x"><path d="M26.79 46.52l1.36.74a1.45 1.45 0 0 0-.87-.15 1.87 1.87 0 0 0-1.16.69l-1.37-.75a1.9 1.9 0 0 1 1.17-.68 1.39 1.39 0 0 1 .87.15z"/></clipPath><clipPath id="y"><path d="M24.66 51.65l-1.37-.75a1.91 1.91 0 0 1 .19-2.29l1.36.75a1.91 1.91 0 0 0-.18 2.29z"/></clipPath><clipPath id="z"><path d="M16 62.58l1.36.74a1.41 1.41 0 0 0-.87-.16l-1.37-.74a1.45 1.45 0 0 1 .88.16z"/></clipPath><clipPath id="A"><path d="M6 86l-1.37-.75a10.4 10.4 0 0 1-1.13-2.69l1.36.75A10.93 10.93 0 0 0 6 86z"/></clipPath><clipPath id="B"><path d="M13.08 65.13l-1.37-.75a2 2 0 0 1 1.62-1.7l1.37.74a2 2 0 0 0-1.62 1.71z"/></clipPath><clipPath id="C"><path d="M10.05 69l-1.37-.7a12.33 12.33 0 0 1 2.65-1.57l1.37.75A12.29 12.29 0 0 0 10.05 69z"/></clipPath><clipPath id="D"><path d="M4.88 77.05l-1.37-.74a14.47 14.47 0 0 1 1.1-3L6 74a14.47 14.47 0 0 0-1.12 3.05z"/></clipPath><clipPath id="E"><path d="M2.13 83l-1.37-.71A1.52 1.52 0 0 1 0 80.91l1.37.75A1.53 1.53 0 0 0 2.13 83z"/></clipPath><clipPath id="F"><path d="M1.37 79.69L0 78.94A2.08 2.08 0 0 1 1.38 77l1.36.74a2.09 2.09 0 0 0-1.37 1.95z"/></clipPath><clipPath id="G"><path d="M6.86 67.16l1.37.74a1.46 1.46 0 0 0-.87-.15 1.85 1.85 0 0 0-1.16.69l-1.37-.75A1.9 1.9 0 0 1 6 67a1.38 1.38 0 0 1 .86.16z"/></clipPath><clipPath id="H"><path d="M4.74 72.29l-1.37-.75a1.92 1.92 0 0 1 .18-2.28l1.36.74a2 2 0 0 0-.17 2.29z"/></clipPath><linearGradient id="I" x1="46.05" x2="15.54" xlink:href="#a" y1="25.07" y2="22.05"/><linearGradient id="J" x1="108.02" x2="78.19" xlink:href="#b" y1="100.71" y2="97.41"/><path d="M91.86 84.42s10.58.92 10.86 6.74l-2.28 10.93s1.29-6.86-9.5-8.81c-4.36-5.03.92-8.86.92-8.86z" fill="url(#b)"/><path d="M35.87 9.86s-10.41-2.14-12.33 3.36l-.94 11.12s.72-6.93 11.62-5.72c5.61-3.62 1.65-8.76 1.65-8.76z" fill="url(#a)"/><path d="M106.44 14.68c0 20.89-1.93 72.51-18.82 98.83l-75.05-10.83S23.65 88.41 29.64 57.5c2.92-15.1 4.63-34.18 3.24-57.5 19.38 1.6 50.47 3.89 65.19 5 0 0 8.37 9.39 8.37 9.68z" fill="#eeedee"/><path d="M98.07 4.97l8.37 9.71-8.66.18z" fill="#eeedee"/><path d="M99.16 16.63l7.28-1.95-7.5.16z" fill="#dad9da"/><g fill="none" stroke="#c1c0c0" stroke-miterlimit="10"><path d="M45.95 29.69l45.36 4.51" stroke-width="3"/><path d="M40.84 41.5l53.5 5.62m-54.12-.41l47.74 5.16m-48.53.04l51.27 5.72m-52.18-.55l44.27 5.08m-45.35.08l50.15 5.92m-51.39-.67l47.35 5.75m-48.67-.67l50.75 6.33m-52.28-1.2l45.05 5.77m-46.78-.69l49.85 6.55m-51.81-1.57l51.81 6.99m-54.14-1.9l47.31 6.54"/></g><g clip-path="url(#c)"><path d="M39.53 65.61l-1.37-.74h-.07l1.37.75h.07" fill="#c0bfc0"/></g><path d="M39.46 65.58l-1.37-.75-1.59-.99 1.37.74z" fill="#bebebe"/><g clip-path="url(#d)"><path d="M23 89.4l-1.37-.74h-.08l1.37.74.08.05" fill="#c0bfc0"/></g><g clip-path="url(#e)"><path d="M43.33 49.56L42 48.82a.4.4 0 0 1 .15 0 1.32 1.32 0 0 1 .56 0l1.36.74a1.3 1.3 0 0 0-.56 0h-.15" fill="#cecdce"/><path d="M44 49.56l-1.36-.74a1.34 1.34 0 0 1 .26.09l1.36.75a1.17 1.17 0 0 0-.26-.1" fill="#cccbcc"/><path d="M44.3 49.66l-1.36-.75 1.37.74h-.05" fill="#cac9ca"/></g><path d="M22.89 89.35l-1.37-.74-1.74-1.08 1.37.74z" fill="#bebebe"/><g clip-path="url(#f)"><path d="M28.46 74.12l-1.37-.75a1.55 1.55 0 0 1 .31 0l1.36.75a1 1 0 0 0-.3 0" fill="#cecdce"/><path d="M28.76 74.16l-1.36-.75.25.1 1.37.74a1.14 1.14 0 0 0-.26-.09" fill="#cccbcc"/><path d="M29 74.25l-1.37-.74h.05l1.37.74z" fill="#cac9ca"/></g><path d="M41.4 50.01l-1.37-.74 1.94-.46 1.37.75z" fill="#d2d1d2"/><path d="M26.34 74.01l-1.37-.75 2.12.11 1.37.74z" fill="#d1d0d1"/><g clip-path="url(#g)"><path d="M29.4 68.94L28 68.2a1.58 1.58 0 0 1-.76-1.52l1.37.75a1.55 1.55 0 0 0 .76 1.51" fill="#c0bfc0"/></g><g clip-path="url(#h)"><path d="M36.28 58.7l-1.37-.7.21-.27 1.36.74-.2.27" fill="#c6c5c6"/><path d="M36.48 58.43l-1.36-.74c.1-.15.19-.3.28-.46l1.37.75c-.09.15-.18.3-.29.45" fill="#c4c3c4"/><path d="M36.77 58l-1.37-.75a4.29 4.29 0 0 0 .26-.58l1.37.74a6.21 6.21 0 0 1-.26.59" fill="#c2c1c2"/><path d="M37 57.39l-1.37-.74a4.54 4.54 0 0 0 .27-1.45 3.38 3.38 0 0 0-1-2.48 3.15 3.15 0 0 0-.57-.41l1.37.74a3.15 3.15 0 0 1 .57.41 3.37 3.37 0 0 1 1 2.48 4.22 4.22 0 0 1-.27 1.45" fill="#c0bfc0"/></g><g clip-path="url(#i)"><path d="M32 59.8l-1.37-.75.1.06 1.37.74z" fill="#cac9ca"/><path d="M32.14 59.85l-1.37-.74.41.16h.13l1.37.75h-.13a2.9 2.9 0 0 1-.41-.16" fill="#cccbcc"/><path d="M32.68 60.05l-1.37-.75a3.13 3.13 0 0 0 1.18.07 3.29 3.29 0 0 0 1-.31l1.37.75a3.77 3.77 0 0 1-1 .3 2.92 2.92 0 0 1-1.18-.06" fill="#cecdce"/><path d="M34.87 59.81l-1.37-.75a4.48 4.48 0 0 0 .56-.32l1.37.74a3.57 3.57 0 0 1-.56.33" fill="#cccbcc"/><path d="M35.43 59.48l-1.37-.74q.21-.15.42-.33l1.36.74a4.23 4.23 0 0 1-.41.33" fill="#cac9ca"/><path d="M35.84 59.15l-1.36-.74c.12-.11.24-.23.35-.35l1.37.74a4 4 0 0 1-.36.35" fill="#c8c7c8"/><path d="M36.2 58.8l-1.37-.74.08-.1 1.37.74z" fill="#c6c5c6"/></g><path d="M28.64 67.42l-1.37-.74.18-2.12 1.37.75z" fill="#c0bfc0"/><g clip-path="url(#j)"><path d="M13.8 94l-1.36-.74a1.47 1.47 0 0 1-.74-1.1l1.36.74a1.46 1.46 0 0 0 .74 1.1" fill="#c0bfc0"/></g><path d="M13.06 92.89l-1.36-.74-.38-2.25 1.37.74z" fill="#bebebe"/><g clip-path="url(#k)"><path d="M37.8 43.79l-1.36-.74h.15l1.37.74z" fill="#cecdce"/><path d="M38 43.82l-1.37-.74a2 2 0 0 1 .26.09l1.36.75z" fill="#cccbcc"/><path d="M38.21 43.92l-1.36-.75 1.37.74" fill="#cac9ca"/></g><g clip-path="url(#l)"><path d="M28.82 65.31l-1.37-.75a7.75 7.75 0 0 1-2.57-2.4l1.37.74a7.49 7.49 0 0 0 2.57 2.41" fill="#c0bfc0"/></g><path d="M36.06 43.54l-1.37-.75 1.75.26 1.36.74z" fill="#cfcfcf"/><g clip-path="url(#m)"><path d="M22.93 65.89l-1.37-.75a1.3 1.3 0 0 1 .2-.15l1.37.74a1.56 1.56 0 0 0-.2.16" fill="#cac9ca"/><path d="M23.13 65.73L21.76 65a1.35 1.35 0 0 1 .26-.15l1.37.74a1.35 1.35 0 0 0-.26.15" fill="#cccbcc"/><path d="M23.39 65.58L22 64.84a1.48 1.48 0 0 1 .48-.15 1.36 1.36 0 0 1 .57 0l1.37.74a1.81 1.81 0 0 0-.57 0 2.21 2.21 0 0 0-.48.15" fill="#cecdce"/><path d="M24.44 65.46l-1.37-.74a1.17 1.17 0 0 1 .26.1l1.37.74z" fill="#cccbcc"/><path d="M24.7 65.56l-1.37-.74h.05l1.37.75h-.05" fill="#cac9ca"/></g><path d="M33.32 46.78l-1.37-.74.82-1.98 1.37.74z" fill="#c5c4c5"/><g clip-path="url(#n)"><path d="M34.14 44.8l-1.37-.74c0-.08.07-.16.11-.23l1.37.74a2.4 2.4 0 0 0-.11.23" fill="#c2c1c2"/><path d="M34.25 44.57l-1.37-.74c0-.08.09-.15.13-.22l1.37.75a1.48 1.48 0 0 0-.13.21" fill="#c4c3c4"/><path d="M34.38 44.36L33 43.61l.15-.19 1.37.75-.15.19" fill="#c6c5c6"/><path d="M34.53 44.17l-1.37-.75a1.29 1.29 0 0 1 .17-.16l1.37.74a1.37 1.37 0 0 0-.17.17" fill="#c8c7c8"/><path d="M34.7 44l-1.37-.74a1 1 0 0 1 .2-.16l1.37.74a1.56 1.56 0 0 0-.2.16" fill="#cac9ca"/><path d="M34.9 43.84l-1.37-.74a1.91 1.91 0 0 1 .27-.16l1.37.74a1.75 1.75 0 0 0-.27.16" fill="#cccbcc"/><path d="M35.17 43.68l-1.37-.74a2.06 2.06 0 0 1 .48-.15 1.87 1.87 0 0 1 .41 0l1.37.75a1.41 1.41 0 0 0-.41 0 1.56 1.56 0 0 0-.48.14" fill="#cecdce"/></g><g clip-path="url(#o)"><path d="M15.58 83.92l-1.37-.74a5 5 0 0 0 1.43-.43l1.37.74a5.23 5.23 0 0 1-1.43.43" fill="#cecdce"/><path d="M17 83.49l-1.37-.74a6.25 6.25 0 0 0 .79-.46l1.38.71a5.24 5.24 0 0 1-.79.46" fill="#cccbcc"/><path d="M17.8 83l-1.37-.74a5.29 5.29 0 0 0 .59-.47l1.37.75a6.26 6.26 0 0 1-.59.46" fill="#cac9ca"/><path d="M18.39 82.57L17 81.82a4.72 4.72 0 0 0 .5-.5l1.37.74c-.16.18-.33.35-.5.51" fill="#c8c7c8"/><path d="M18.89 82.06l-1.37-.74a6 6 0 0 0 .44-.56l1.37.75c-.14.19-.29.38-.44.55" fill="#c6c5c6"/><path d="M19.33 81.51L18 80.76a6.89 6.89 0 0 0 .4-.64l1.36.74a7 7 0 0 1-.39.65" fill="#c4c3c4"/><path d="M19.72 80.86l-1.36-.74a6 6 0 0 0 .36-.82l1.37.74a5.54 5.54 0 0 1-.37.82" fill="#c2c1c2"/><path d="M20.09 80l-1.37-.74a6 6 0 0 0 .38-2.07 4.56 4.56 0 0 0-2.26-4.13l1.37.74a4.6 4.6 0 0 1 2.26 4.2 6.21 6.21 0 0 1-.38 2" fill="#c0bfc0"/></g><g clip-path="url(#p)"><path d="M13 83.47l-1.36-.75.14.08 1.37.74z" fill="#cac9ca"/><path d="M13.12 83.54l-1.37-.74a4.49 4.49 0 0 0 .77.29l1.37.74a3.39 3.39 0 0 1-.77-.29" fill="#cccbcc"/><path d="M13.89 83.83l-1.37-.74a4.52 4.52 0 0 0 1.69.09l1.37.74a4.32 4.32 0 0 1-1.69-.09" fill="#cecdce"/></g><path d="M21.15 67.48l-1.37-.74 1.78-1.6 1.37.75z" fill="#cecdce"/><g clip-path="url(#q)"><path d="M23.3 63.23l-1.37-.74a1.44 1.44 0 0 1-.7-1l1.36.74a1.44 1.44 0 0 0 .71.95" fill="#c0bfc0"/></g><g clip-path="url(#r)"><path d="M29.81 48.29l-1.37-.75a12.06 12.06 0 0 1 1.39-.79l1.37.74a10.82 10.82 0 0 0-1.39.8" fill="#cccbcc"/><path d="M31.2 47.49l-1.37-.74A9.79 9.79 0 0 1 32 46l1.37.74a9.79 9.79 0 0 0-2.12.71" fill="#cecdce"/></g><g clip-path="url(#s)"><path d="M6.46 91.73L5.09 91a1.12 1.12 0 0 1-.29-.21l1.37.75a1.54 1.54 0 0 0 .29.21" fill="#c0bfc0"/></g><path d="M22.59 62.28l-1.36-.74-.46-1.81 1.37.74z" fill="#bebebe"/><g clip-path="url(#t)"><path d="M18.5 66.66l-1.37-.74a7.94 7.94 0 0 1 1 .2l1.37.74c-.32-.08-.64-.15-1-.2" fill="#cecdce"/><path d="M19.47 66.86l-1.37-.74a8.48 8.48 0 0 1 1.68.62l1.36.74a8.8 8.8 0 0 0-1.67-.62" fill="#cccbcc"/><path d="M21.14 67.48l-1.36-.74 1.37.74z" fill="#cac9ca"/></g><path d="M23.06 58.28l-1.37-.75 1.78-1.15 1.37.74z" fill="#d0cfd0"/><g clip-path="url(#u)"><path d="M24.84 57.12l-1.37-.74a11.29 11.29 0 0 1 .68-3.27l1.37.75a11.22 11.22 0 0 0-.68 3.26" fill="#c0bfc0"/><path d="M25.52 53.86l-1.37-.75c.08-.21.17-.43.26-.64l1.37.74c-.09.21-.18.43-.26.65" fill="#c2c1c2"/></g><g clip-path="url(#v)"><path d="M22.14 60.47l-1.37-.74a1.93 1.93 0 0 1 .08-1.14l1.37.74a1.94 1.94 0 0 0-.08 1.14" fill="#c0bfc0"/><path d="M22.22 59.33l-1.37-.74a2.36 2.36 0 0 1 .12-.28l1.37.74a1.69 1.69 0 0 0-.12.28" fill="#c2c1c2"/><path d="M22.34 59.05L21 58.31a1.64 1.64 0 0 1 .14-.22l1.37.75a1.53 1.53 0 0 0-.14.21" fill="#c4c3c4"/><path d="M22.48 58.84l-1.37-.75a1.24 1.24 0 0 1 .14-.18l1.37.74a1.33 1.33 0 0 0-.14.19" fill="#c6c5c6"/><path d="M22.62 58.65l-1.37-.74c.06-.06.11-.12.17-.17l1.37.74z" fill="#c8c7c8"/><path d="M22.79 58.48l-1.37-.74a1.56 1.56 0 0 1 .2-.16l1.36.75z" fill="#cac9ca"/><path d="M23 58.33l-1.36-.75h.07l1.37.75z" fill="#cccbcc"/></g><path d="M6.17 91.52l-1.37-.75-1.28-1.19 1.37.74zm19.61-38.31l-1.37-.74-1.12-1.56 1.37.74z" fill="#bebebe"/><path d="M4.71 88.08l-1.37-.74 1.25-2.07 1.37.75z" fill="#c8c7c8"/><g clip-path="url(#w)"><path d="M4.89 90.32l-1.37-.74a1.76 1.76 0 0 1-.35-1.88l1.37.74a1.76 1.76 0 0 0 .35 1.88" fill="#c0bfc0"/><path d="M4.54 88.44l-1.37-.74.12-.27 1.37.74a1.59 1.59 0 0 0-.12.27" fill="#c2c1c2"/><path d="M4.66 88.17l-1.37-.74a.41.41 0 0 0 0-.09l1.37.74z" fill="#c4c3c4"/></g><g clip-path="url(#x)"><path d="M26.12 47.8l-1.37-.75.05-.05 1.37.75-.05.06" fill="#c6c5c6"/><path d="M26.17 47.74L24.8 47a1.29 1.29 0 0 1 .17-.16l1.36.74-.16.17" fill="#c8c7c8"/><path d="M26.33 47.57L25 46.83l.19-.16 1.37.74-.2.16" fill="#cac9ca"/><path d="M26.53 47.41l-1.37-.74a1.82 1.82 0 0 1 .27-.15l1.37.74z" fill="#cccbcc"/><path d="M26.8 47.26l-1.37-.74a1.46 1.46 0 0 1 .49-.15 1.32 1.32 0 0 1 .56 0l1.37.74a1.81 1.81 0 0 0-.57 0 2.21 2.21 0 0 0-.48.15" fill="#cecdce"/><path d="M27.85 47.14l-1.37-.74a1.14 1.14 0 0 1 .26.09l1.37.75z" fill="#cccbcc"/><path d="M28.11 47.24l-1.37-.75h.05l1.36.74" fill="#cac9ca"/></g><path d="M24.84 49.36l-1.36-.75 1.27-1.56 1.37.75z" fill="#cbcacb"/><g clip-path="url(#y)"><path d="M24.66 51.65l-1.37-.75a1.79 1.79 0 0 1-.17-1.66l1.36.74a1.81 1.81 0 0 0 .18 1.67" fill="#c0bfc0"/><path d="M24.48 50l-1.36-.74a1.69 1.69 0 0 1 .12-.28l1.37.75c-.05.09-.09.18-.13.27" fill="#c2c1c2"/><path d="M24.61 49.71L23.24 49a2.39 2.39 0 0 1 .13-.21l1.37.75a1.48 1.48 0 0 0-.13.21" fill="#c4c3c4"/><path d="M24.74 49.5l-1.37-.75a1.34 1.34 0 0 1 .11-.14l1.36.75z" fill="#c6c5c6"/></g><path d="M45.54 52.43a2.08 2.08 0 0 1-.92 2.19l-1.77 1.14a11.2 11.2 0 0 1-.94 3.9L43 61.23a1.92 1.92 0 0 1-.18 2.3l-1.28 1.55a1.87 1.87 0 0 1-1.16.69 1.46 1.46 0 0 1-.94-.19l-1.59-1a9.72 9.72 0 0 1-3.53 1.48l-.83 2A2 2 0 0 1 32 69.34a1.41 1.41 0 0 1-.41 0l-1.75-.25a1.49 1.49 0 0 1-1.22-1.66l.18-2.12a7.49 7.49 0 0 1-2.57-2.41l-1.94.46h-.13a1.4 1.4 0 0 1-1.59-1.1l-.45-1.81a2.08 2.08 0 0 1 .92-2.19l1.78-1.16a11.25 11.25 0 0 1 .94-3.91l-1.12-1.56a1.91 1.91 0 0 1 .18-2.29l1.28-1.56a1.87 1.87 0 0 1 1.16-.69 1.46 1.46 0 0 1 .94.19l1.59 1a9.87 9.87 0 0 1 3.51-1.51l.82-2a2 2 0 0 1 1.51-1.26 1.41 1.41 0 0 1 .41 0l1.74.25A1.5 1.5 0 0 1 39 45.49l-.18 2.11A7.78 7.78 0 0 1 41.4 50l1.93-.45h.15a1.39 1.39 0 0 1 1.57 1.08zm-9.26 6.27a4.4 4.4 0 0 0 1-2.76 3.37 3.37 0 0 0-1-2.48 2.93 2.93 0 0 0-2.4-.73 3.63 3.63 0 0 0-1.33.48 4.36 4.36 0 0 0-2.1 3.69 3.12 3.12 0 0 0 2.1 3.1 3.06 3.06 0 0 0 1.31.1 3.89 3.89 0 0 0 2.42-1.41" fill="#e2e1e2"/><g clip-path="url(#z)"><path d="M16.52 63.16l-1.37-.74a1.48 1.48 0 0 1 .56 0l1.37.75a1.47 1.47 0 0 0-.56 0" fill="#cecdce"/><path d="M17.08 63.2l-1.37-.75.27.1 1.36.74a1.14 1.14 0 0 0-.26-.09" fill="#cccbcc"/><path d="M17.34 63.29L16 62.55h.05l1.36.74h-.05" fill="#cac9ca"/></g><g clip-path="url(#A)"><path d="M6 86l-1.37-.75a10.4 10.4 0 0 1-1.13-2.69l1.36.75A10.93 10.93 0 0 0 6 86" fill="#c0bfc0"/></g><path d="M14.7 63.42l-1.37-.74 1.82-.26 1.37.74z" fill="#d2d1d2"/><path d="M12.7 67.48l-1.37-.75.38-2.35 1.37.75z" fill="#c1c0c1"/><g clip-path="url(#B)"><path d="M13.08 65.13l-1.37-.75a2.62 2.62 0 0 1 .11-.4l1.37.74a1.91 1.91 0 0 0-.11.41" fill="#c0bfc0"/><path d="M13.19 64.72L11.82 64a1.11 1.11 0 0 1 .12-.27l1.37.74a1.59 1.59 0 0 0-.12.27" fill="#c2c1c2"/><path d="M13.31 64.45l-1.37-.74c0-.08.09-.15.13-.22l1.37.74a2.53 2.53 0 0 0-.13.22" fill="#c4c3c4"/><path d="M13.44 64.23l-1.37-.74.15-.19 1.37.75z" fill="#c6c5c6"/><path d="M13.59 64.05l-1.37-.75.17-.17 1.37.75z" fill="#c8c7c8"/><path d="M13.76 63.88l-1.37-.75a1.49 1.49 0 0 1 .2-.15l1.37.74a1.56 1.56 0 0 0-.2.16" fill="#cac9ca"/><path d="M14 63.72L12.59 63a1.75 1.75 0 0 1 .27-.16l1.36.75a1.35 1.35 0 0 0-.26.15" fill="#cccbcc"/><path d="M14.22 63.57l-1.36-.75a1.5 1.5 0 0 1 .47-.14l1.37.74a1.92 1.92 0 0 0-.48.15" fill="#cecdce"/></g><g clip-path="url(#C)"><path d="M10.05 69l-1.37-.7q.27-.21.54-.39l1.36.74-.53.39" fill="#cac9ca"/><path d="M10.58 68.65l-1.36-.74a11.09 11.09 0 0 1 1.73-1l1.37.74a12.61 12.61 0 0 0-1.74 1" fill="#cccbcc"/><path d="M12.32 67.65L11 66.91l.38-.18 1.37.75-.38.17" fill="#cecdce"/></g><g clip-path="url(#D)"><path d="M4.88 77.05l-1.37-.74A14.56 14.56 0 0 1 4 74.72l1.37.75a11.45 11.45 0 0 0-.48 1.58" fill="#c0bfc0"/><path d="M5.36 75.47L4 74.72a15.23 15.23 0 0 1 .62-1.44L6 74a13.16 13.16 0 0 0-.62 1.45" fill="#c2c1c2"/></g><g clip-path="url(#E)"><path d="M2.13 83l-1.37-.71A1.52 1.52 0 0 1 0 80.91l1.37.75A1.53 1.53 0 0 0 2.13 83" fill="#c0bfc0"/></g><path d="M2.74 77.75l-1.36-.74 2.13-.7 1.37.74z" fill="#d2d1d2"/><path d="M1.37 81.66L0 80.91v-1.97l1.37.75z" fill="#bfbfbf"/><g clip-path="url(#F)"><path d="M1.37 79.69L0 78.94a2.28 2.28 0 0 1 .13-.69L1.5 79a2 2 0 0 0-.13.69" fill="#c0bfc0"/><path d="M1.5 79l-1.37-.75c0-.09.08-.19.13-.28l1.36.75a2.36 2.36 0 0 0-.12.28" fill="#c2c1c2"/><path d="M1.62 78.72L.26 78a1.48 1.48 0 0 1 .13-.21l1.37.74-.14.22" fill="#c4c3c4"/><path d="M1.76 78.5l-1.37-.74.15-.19 1.37.74a.9.9 0 0 0-.15.19" fill="#c6c5c6"/><path d="M1.91 78.31l-1.37-.74.16-.17 1.37.75a1.21 1.21 0 0 0-.16.16" fill="#c8c7c8"/><path d="M2.07 78.15L.7 77.4c.07-.05.13-.11.2-.15l1.37.75a1.56 1.56 0 0 0-.2.16" fill="#cac9ca"/><path d="M2.27 78L.9 77.25a2.26 2.26 0 0 1 .26-.16l1.37.75a1.35 1.35 0 0 0-.26.15" fill="#cccbcc"/><path d="M2.53 77.84l-1.37-.75.22-.09 1.36.74-.21.09" fill="#cecdce"/></g><path d="M5.98 74.02l-1.37-.74-1.24-1.74 1.37.75z" fill="#bebebe"/><g clip-path="url(#G)"><path d="M6.2 68.44l-1.37-.75v-.06l1.37.75z" fill="#c6c5c6"/><path d="M6.25 68.38l-1.37-.75c0-.06.11-.11.16-.16l1.37.74a1.29 1.29 0 0 0-.16.17" fill="#c8c7c8"/><path d="M6.41 68.21L5 67.47l.2-.16 1.37.74-.2.16" fill="#cac9ca"/><path d="M6.61 68.05l-1.37-.74a1.82 1.82 0 0 1 .27-.15l1.37.74a1.43 1.43 0 0 0-.27.15" fill="#cccbcc"/><path d="M6.88 67.9l-1.37-.74A1.48 1.48 0 0 1 6 67a1.37 1.37 0 0 1 .57 0l1.37.74a1.82 1.82 0 0 0-.57 0 2.06 2.06 0 0 0-.48.15" fill="#cecdce"/><path d="M7.93 67.78L6.56 67a1.06 1.06 0 0 1 .25.09l1.37.75-.25-.1" fill="#cccbcc"/><path d="M8.18 67.88l-1.37-.75h.05l1.37.74h-.05" fill="#cac9ca"/></g><path d="M4.91 70l-1.37-.75 1.29-1.56 1.37.75z" fill="#cbcacb"/><g clip-path="url(#H)"><path d="M4.74 72.29l-1.37-.75a1.83 1.83 0 0 1-.17-1.68l1.37.75a1.84 1.84 0 0 0 .17 1.68" fill="#c0bfc0"/><path d="M4.57 70.61l-1.37-.75c0-.09.08-.19.13-.28l1.37.75a1.43 1.43 0 0 0-.13.28" fill="#c2c1c2"/><path d="M4.7 70.33l-1.37-.75a2.39 2.39 0 0 1 .13-.21l1.37.74a1.59 1.59 0 0 0-.13.22" fill="#c4c3c4"/><path d="M4.83 70.11l-1.37-.74.09-.11 1.36.74z" fill="#c6c5c6"/></g><path d="M28.46 74.12a1.43 1.43 0 0 1 1.36 1.54v2a2 2 0 0 1-1.37 1.93l-2.13.71a13.62 13.62 0 0 1-1.11 3l1.24 1.7a1.91 1.91 0 0 1-.19 2.29L25 88.87a1.86 1.86 0 0 1-1.16.68 1.41 1.41 0 0 1-.94-.2l-1.74-1.08a12.53 12.53 0 0 1-2.65 1.56l-.38 2.35a2 2 0 0 1-1.62 1.71l-1.83.25a1.41 1.41 0 0 1-1.61-1.25l-.37-2.25a9 9 0 0 1-2.7-.81l-1.73 1.59a1.84 1.84 0 0 1-.94.46 1.37 1.37 0 0 1-1.16-.36l-1.28-1.2a1.82 1.82 0 0 1-.18-2.24L6 86a10.93 10.93 0 0 1-1.1-2.71l-2.17-.09a1.45 1.45 0 0 1-1.36-1.54v-2a2.09 2.09 0 0 1 1.37-1.94l2.14-.7A14.47 14.47 0 0 1 6 74l-1.26-1.71A2 2 0 0 1 4.91 70l1.29-1.56a1.85 1.85 0 0 1 1.16-.69 1.47 1.47 0 0 1 .94.19L10.05 69a12.29 12.29 0 0 1 2.65-1.56l.38-2.35a2 2 0 0 1 1.62-1.71l1.82-.26a1.43 1.43 0 0 1 1.61 1.26l.37 2.24a9 9 0 0 1 2.65.82l1.78-1.59a1.77 1.77 0 0 1 .94-.46 1.39 1.39 0 0 1 1.16.36L26.3 67a1.8 1.8 0 0 1 .18 2.24l-1.24 2.06a11.4 11.4 0 0 1 1.1 2.7zm-12.88 9.8A6.06 6.06 0 0 0 20.47 78a4.46 4.46 0 0 0-3-4.45 4.23 4.23 0 0 0-1.87-.14 5.55 5.55 0 0 0-3.45 2 6 6 0 0 0-1.08 5.89 4.15 4.15 0 0 0 4.51 2.62" fill="#e2e1e2"/><path d="M39.58 23L45 29.54l-7.52 4.3c-5.69-1.08-15.37-1.84-14.88-9.5.17-2.6.94-11.12.94-11.12s-.5 5.84 6.11 7.87A58 58 0 0 0 39.58 23z" fill="url(#I)"/><path d="M84.55 95.94l-7 4.74 6 6.26c5.74.59 15.24 2.62 17-4.85.58-2.55 2.28-10.93 2.28-10.93s-1.2 5.74-8.11 5.8a59.22 59.22 0 0 1-10.17-1.02z" fill="url(#J)"/></svg>