<svg viewBox="0 0 123.52 151.48" xmlns="http://www.w3.org/2000/svg" xmlns:xlink="http://www.w3.org/1999/xlink"><linearGradient id="d" gradientTransform="scale(-1 1) rotate(-76.1 7.745 161.248)" gradientUnits="userSpaceOnUse" x1="22.54" x2="68.5" y1="96.86" y2="141.77"><stop offset="0" stop-color="#4e8aca"/><stop offset=".02" stop-color="#4988c8"/><stop offset=".2" stop-color="#4c76a6"/><stop offset=".26" stop-color="#4c7dad"/><stop offset=".6" stop-color="#44a0d9"/><stop offset="1" stop-color="#4d84c5"/></linearGradient><linearGradient id="a" gradientUnits="userSpaceOnUse" x1="65.41" x2="25.84" y1="85.83" y2="46.25"><stop offset="0" stop-color="#d6645a"/><stop offset=".2" stop-color="#d37d45"/><stop offset=".6" stop-color="#b34f46"/><stop offset="1" stop-color="#d45949"/></linearGradient><linearGradient id="e" x1="43.53" x2="11.87" xlink:href="#a" y1="107.4" y2="75.74"/><linearGradient id="f" x1="110.95" x2="57.32" xlink:href="#a" y1="67.85" y2="14.22"/><linearGradient id="b" gradientUnits="userSpaceOnUse" x1="78.27" x2="-3.97" y1="147.53" y2="-117.35"><stop offset="0" stop-color="#c3c2c2"/><stop offset=".18" stop-color="#b4b3b4"/><stop offset=".2" stop-color="#b6b5b6"/><stop offset=".38" stop-color="#cfcecf"/><stop offset=".57" stop-color="#e1e0e1"/><stop offset=".77" stop-color="#ecebec"/><stop offset="1" stop-color="#efeeef"/></linearGradient><linearGradient id="g" gradientTransform="rotate(80.73 77.96 134.332)" x1="73.53" x2="81.62" xlink:href="#b" y1="155.5" y2="116.86"/><linearGradient id="c" gradientTransform="rotate(180 -176.72 -162.955)" gradientUnits="userSpaceOnUse" x1="-449.69" x2="-453.56" y1="-370.86" y2="-460.55"><stop offset="0" stop-color="#4e8aca"/><stop offset=".02" stop-color="#4988c8"/><stop offset=".2" stop-color="#4c76a6"/><stop offset=".6" stop-color="#44a0d9"/><stop offset="1" stop-color="#4d84c5"/></linearGradient><linearGradient id="h" x1="124.14" x2="20.72" xlink:href="#c" y1="106.86" y2="114.86"/><path d="M28.94 110.69s5.93 8.47 10.15 7.88c.76 3.11.89 11.11.89 11.11s-7.64-2.07-8.89-7.2c-1.04-4.27-2.15-11.79-2.15-11.79z" fill="url(#d)"/><path d="M57.39 93.55c9-4.58-9.58-30.65-9.58-30.65s-14-21.25-10.32-28.3c-2.15 3.41-3.79 5.6-5.37 8.34-2.18 3.77 3.9 16 8.06 23.31s19.29 26.48 12.76 30.4a20 20 0 0 1 4.45-3.1z" fill="url(#a)"/><path d="M52.94 96.65C41.5 105.11 11.39 98.18 0 91.57l11.39-15.36s30.17 24.26 46 17.34z" fill="url(#e)"/><path d="M123.52 55c-17.67 24.28-82.24-24-91.4-12.05l5.37-8.34c22.34-30.8 73.4 10.95 84.22-9.91z" fill="url(#f)"/><path d="M47.79 151.49L14.72 0l57.96 13.51 31.68 118.9z" fill="none"/><path d="M102.45 126.9a12.68 12.68 0 0 1-.35 3.29 7.51 7.51 0 0 1-1.16 2.57 4.07 4.07 0 0 1-1.94 1.45l-36.69 12.38-6.17 2.08a6 6 0 0 1-1.91.32H49.1a6 6 0 0 1-1.45-.18 8 8 0 0 1-3.18-1.65 11.79 11.79 0 0 1-2.62-3.16 13.71 13.71 0 0 1-1.1-2.42 14.4 14.4 0 0 1-.56-1.93L33.5 109l-6.61-30.28-7-31.87c-2.4-11-4.92-22.54-7.64-35a9.14 9.14 0 0 1-.13-3.5 5.35 5.35 0 0 1 1.16-2.56 4.35 4.35 0 0 1 .9-.81l4.7-2.58a4.44 4.44 0 0 1 1.14-.48 6.16 6.16 0 0 1 3 0l44 10.25a7 7 0 0 1 2.36 1.13 11.43 11.43 0 0 1 2.21 2.05 15.65 15.65 0 0 1 1.84 2.7 14.66 14.66 0 0 1 1.22 3.07c3.73 14 6.38 23.93 8.46 31.75s3.62 13.6 5.1 19.17 3 11.11 5 18.74 4.71 17.7 8.63 32.41a15.67 15.67 0 0 1 .61 3.71z" fill="url(#b)"/><path d="M67.08 12.2L23.08 2a6.16 6.16 0 0 0-3 0 4.41 4.41 0 0 0-2.23 1.39A5.55 5.55 0 0 0 16.68 6a9.26 9.26 0 0 0 .13 3.56l7.77 35.58 7.08 32.43 6.73 30.81 6.8 31.17a15.45 15.45 0 0 0 1.69 4.42 12 12 0 0 0 2.67 3.22 8.16 8.16 0 0 0 3.23 1.68 6 6 0 0 0 3.38-.14L99 134.21a3.93 3.93 0 0 0 1.91-1.46 7.2 7.2 0 0 0 1.17-2.56 12.27 12.27 0 0 0 .34-3.29 15.64 15.64 0 0 0-.53-3.68l-8.62-32.41-5-18.74-5.1-19.17-8.45-31.75a14.28 14.28 0 0 0-1.23-3.07 15.06 15.06 0 0 0-1.83-2.7 12.47 12.47 0 0 0-2.21-2.06 7.19 7.19 0 0 0-2.37-1.12" fill="#eeedee"/><path d="M21.53 9.47L49.2 135.16l47.83-13.06L70.32 19.49zm20.69-.8l10.69 2.4a2 2 0 0 1 1.5 1.39 1 1 0 0 1-1.1 1.2l-10.73-2.3A2 2 0 0 1 41 9.9a1 1 0 0 1 1.22-1.23z" fill="#dddcdd"/><ellipse cx="77.96" cy="134.33" fill="url(#g)" rx="4.02" ry="3.61" transform="rotate(-80.73 77.955 134.332)"/><path d="M104.36 95.78s1.15-7.39-12.27-9.42c2 6.36 5 18.94 5 18.94a8.16 8.16 0 0 1 7.21 8.51c.04-9.71.06-18.03.06-18.03z" fill="url(#c)"/><path d="M104.34 113.81c-.87 9.74-24 10.36-36.58 5.73-10.93-4.05-33.09-6.62-36.38 4 0 0-1.73-10.14-2.69-13.88 0-4.52 16.38-15.71 43.63-2.36 14.18 6.94 30.93 1 32-11.53.04 4.17.02 18.04.02 18.04z" fill="url(#h)"/></svg>