<?xml version="1.0" standalone="no"?>
<!DOCTYPE svg PUBLIC "-//W3C//DTD SVG 20010904//EN"
 "http://www.w3.org/TR/2001/REC-SVG-20010904/DTD/svg10.dtd">
<svg version="1.0" xmlns="http://www.w3.org/2000/svg"
 width="593.000000pt" height="593.000000pt" viewBox="0 0 593.000000 593.000000"
 preserveAspectRatio="xMidYMid meet">
<metadata>
Created by potrace 1.11, written by Peter Selinger 2001-2013
</metadata>
<g transform="translate(0.000000,593.000000) scale(0.100000,-0.100000)"
fill="#000000" stroke="none">
<path d="M1758 5903 c-42 -11 -56 -19 -50 -28 4 -7 57 -66 118 -131 62 -66
126 -135 144 -154 27 -30 118 -127 290 -310 123 -131 252 -269 276 -295 47
-52 266 -285 346 -370 43 -45 86 -91 96 -103 17 -20 203 -219 264 -282 25 -27
31 -28 120 -29 51 -1 119 -3 150 -5 48 -2 56 -1 47 11 -14 16 -524 531 -1206
1216 -360 362 -501 497 -517 496 -11 -1 -47 -8 -78 -16z"/>
<path d="M1497 5773 c-8 -32 -31 -116 -50 -188 -19 -71 -82 -303 -140 -515
-154 -561 -207 -758 -223 -820 -8 -30 -17 -63 -20 -73 -5 -16 1 -17 63 -13 97
6 217 18 221 21 3 3 269 880 276 910 1 6 12 42 24 82 l22 71 543 -545 542
-544 40 5 c120 18 171 23 223 25 19 0 32 5 30 10 -3 8 -73 85 -271 295 -21 22
-86 92 -145 154 -59 63 -123 132 -142 152 -19 21 -87 93 -150 160 -168 179
-175 186 -295 315 -60 65 -132 141 -159 169 -26 28 -88 94 -137 146 -183 197
-224 240 -230 240 -4 0 -13 -26 -22 -57z"/>
<path d="M1725 4904 c-14 -49 -31 -102 -36 -119 -40 -123 -176 -581 -173 -584
3 -4 177 -2 181 2 1 2 97 345 108 387 2 8 19 74 39 145 l35 130 -64 64 -63 64
-27 -89z"/>
<path d="M504 2797 l1 -1321 30 -18 c38 -22 130 -45 215 -53 106 -10 350 -6
485 8 28 3 84 9 125 12 41 3 95 8 120 10 61 6 477 7 520 1 19 -2 66 -7 104
-11 38 -4 79 -9 90 -11 12 -2 37 -5 56 -8 33 -4 122 -24 203 -44 l37 -10 0
1323 c0 1230 -1 1323 -17 1329 -61 24 -275 61 -418 74 -166 15 -688 6 -787
-13 -39 -8 -241 -18 -348 -18 -175 0 -277 14 -361 48 l-56 22 1 -1320z"/>
<path d="M4523 4105 c-82 -58 -410 -75 -738 -39 -155 17 -278 21 -520 19 -148
-2 -281 -5 -295 -8 -14 -3 -50 -8 -80 -11 -62 -7 -104 -14 -140 -22 -14 -3
-32 -7 -40 -9 -41 -8 -133 -34 -137 -39 -6 -6 -8 -2635 -2 -2641 3 -2 36 5 74
16 77 21 215 45 315 54 36 3 79 8 95 10 36 5 475 6 525 1 19 -2 76 -7 125 -10
50 -4 101 -10 115 -13 50 -10 477 -12 540 -2 78 11 159 36 181 55 15 13 16
137 16 1334 0 726 -3 1320 -6 1320 -4 0 -16 -7 -28 -15z"/>
<path d="M4669 3046 c0 -22 -1 -110 -1 -194 l0 -152 65 -68 c36 -37 89 -93
118 -126 30 -32 70 -75 89 -95 19 -21 87 -93 150 -160 63 -68 145 -156 182
-195 36 -39 65 -72 64 -73 -2 -2 -253 -71 -283 -78 -10 -2 -70 -18 -133 -34
-63 -17 -145 -38 -182 -48 -68 -16 -68 -16 -69 -52 -2 -144 -1 -232 4 -237 3
-3 95 15 204 41 109 26 207 49 218 51 11 3 31 7 44 10 14 3 81 19 150 35 69
16 173 41 231 55 286 67 392 93 397 98 4 3 -43 55 -103 115 -60 60 -342 343
-626 629 l-518 520 -1 -42z"/>
<path d="M4669 2445 c0 -16 -1 -72 0 -124 l1 -94 110 -109 c76 -75 116 -108
128 -105 9 3 44 13 77 22 33 10 64 18 68 19 10 2 1 12 -326 361 l-56 60 -2
-30z"/>
<path d="M251 1187 c-73 -270 -161 -590 -193 -711 l-60 -219 65 -65 c46 -46
68 -62 71 -51 4 12 207 687 281 934 13 44 37 124 53 178 l29 97 -34 21 c-58
36 -67 60 -73 191 l-5 118 -134 -493z"/>
<path d="M5770 1625 c-125 -30 -439 -104 -515 -121 -33 -7 -166 -38 -295 -69
-129 -31 -246 -58 -260 -60 -36 -7 -172 -39 -361 -84 -91 -22 -176 -42 -190
-45 -52 -11 -77 -17 -159 -37 -47 -11 -94 -23 -105 -25 -11 -2 -137 -31 -280
-64 -143 -34 -267 -63 -275 -65 -8 -2 -76 -17 -150 -35 -74 -17 -144 -33 -155
-35 -11 -3 -65 -16 -120 -29 -55 -14 -111 -27 -125 -30 -25 -4 -1024 -237
-1120 -261 -36 -8 -417 -97 -435 -100 -11 -3 -136 -32 -279 -65 -142 -33 -261
-59 -263 -56 -4 4 110 432 193 728 32 115 32 114 -18 116 -24 1 -72 5 -108 8
-36 3 -76 6 -90 7 -24 2 -28 -7 -158 -438 -159 -523 -240 -790 -252 -827 -5
-16 -6 -28 -3 -28 4 0 103 26 253 66 30 8 62 17 70 19 15 3 55 14 475 125 127
34 237 63 246 65 9 2 67 17 130 34 63 16 149 39 192 51 42 11 112 29 155 41
42 11 84 22 92 24 8 2 51 13 95 25 149 40 260 69 380 100 66 17 163 43 215 57
52 14 102 27 110 28 8 2 15 4 15 5 0 1 7 3 15 5 17 3 146 37 670 176 206 55
382 102 391 104 9 2 69 18 134 35 65 17 125 33 134 35 24 5 247 64 321 85 72
21 404 108 435 114 11 3 182 48 380 101 198 53 369 98 380 101 11 2 83 21 160
42 l139 37 17 55 c25 84 30 110 22 109 -5 0 -51 -11 -103 -24z"/>
<path d="M3207 1333 c-1 -1 -53 -4 -116 -8 -62 -4 -123 -8 -135 -11 -11 -2
-41 -6 -66 -8 -63 -7 -189 -32 -251 -50 -29 -9 -65 -16 -81 -16 -24 0 -142
-30 -668 -169 -63 -17 -164 -43 -225 -59 -559 -147 -771 -205 -777 -210 -4 -4
-9 -18 -12 -32 -3 -14 -12 -51 -20 -82 -8 -32 -13 -58 -12 -58 1 0 96 22 211
49 363 86 779 183 795 186 8 2 73 17 144 34 70 17 138 33 150 35 11 3 30 7 41
10 11 2 52 12 90 21 39 9 79 19 90 21 11 2 65 15 120 28 55 14 111 27 125 30
14 2 84 19 155 36 72 18 137 33 145 35 90 20 242 55 475 110 329 79 305 73
329 74 25 1 12 14 -17 17 -96 9 -485 23 -490 17z"/>
</g>
</svg>
