<svg version="1.0" xmlns="http://www.w3.org/2000/svg" width="790.667" height="790.667" viewBox="0 0 593 593"><path d="M175.8 2.7c-4.2 1.1-5.6 1.9-5 2.8.4.7 5.7 6.6 11.8 13.1 6.2 6.6 12.6 13.5 14.4 15.4 2.7 3 11.8 12.7 29 31 12.3 13.1 25.2 26.9 27.6 29.5 4.7 5.2 26.6 28.5 34.6 37 4.3 4.5 8.6 9.1 9.6 10.3 1.7 2 20.3 21.9 26.4 28.2 2.5 2.7 3.1 2.8 12 2.9 5.1.1 11.9.3 15 .5 4.8.2 5.6.1 4.7-1.1-1.4-1.6-52.4-53.1-120.6-121.6-36-36.2-50.1-49.7-51.7-49.6-1.1.1-4.7.8-7.8 1.6zm-26.1 13c-.8 3.2-3.1 11.6-5 18.8-1.9 7.1-8.2 30.3-14 51.5-15.4 56.1-20.7 75.8-22.3 82-.8 3-1.7 6.3-2 7.3-.5 1.6.1 1.7 6.3 1.3 9.7-.6 21.7-1.8 22.1-2.1.3-.3 26.9-88 27.6-91 .1-.6 1.2-4.2 2.4-8.2l2.2-7.1 54.3 54.5 54.2 54.4 4-.5c12-1.8 17.1-2.3 22.3-2.5 1.9 0 3.2-.5 3-1-.3-.8-7.3-8.5-27.1-29.5-2.1-2.2-8.6-9.2-14.5-15.4-5.9-6.3-12.3-13.2-14.2-15.2-1.9-2.1-8.7-9.3-15-16-16.8-17.9-17.5-18.6-29.5-31.5-6-6.5-13.2-14.1-15.9-16.9-2.6-2.8-8.8-9.4-13.7-14.6-18.3-19.7-22.4-24-23-24-.4 0-1.3 2.6-2.2 5.7z"/><path d="M172.5 102.6c-1.4 4.9-3.1 10.2-3.6 11.9-4 12.3-17.6 58.1-17.3 58.4.3.4 17.7.2 18.1-.2.1-.2 9.7-34.5 10.8-38.7.2-.8 1.9-7.4 3.9-14.5l3.5-13-6.4-6.4-6.3-6.4-2.7 8.9zM50.4 313.3l.1 132.1 3 1.8c3.8 2.2 13 4.5 21.5 5.3 10.6 1 35 .6 48.5-.8 2.8-.3 8.4-.9 12.5-1.2 4.1-.3 9.5-.8 12-1 6.1-.6 47.7-.7 52-.1 1.9.2 6.6.7 10.4 1.1 3.8.4 7.9.9 9 1.1 1.2.2 3.7.5 5.6.8 3.3.4 12.2 2.4 20.3 4.4l3.7 1V325.5c0-123-.1-132.3-1.7-132.9-6.1-2.4-27.5-6.1-41.8-7.4-16.6-1.5-68.8-.6-78.7 1.3-3.9.8-24.1 1.8-34.8 1.8-17.5 0-27.7-1.4-36.1-4.8l-5.6-2.2.1 132zm401.9-130.8c-8.2 5.8-41 7.5-73.8 3.9-15.5-1.7-27.8-2.1-52-1.9-14.8.2-28.1.5-29.5.8-1.4.3-5 .8-8 1.1-6.2.7-10.4 1.4-14 2.2-1.4.3-3.2.7-4 .9-4.1.8-13.3 3.4-13.7 3.9-.6.6-.8 263.5-.2 264.1.3.2 3.6-.5 7.4-1.6 7.7-2.1 21.5-4.5 31.5-5.4 3.6-.3 7.9-.8 9.5-1 3.6-.5 47.5-.6 52.5-.1 1.9.2 7.6.7 12.5 1 5 .4 10.1 1 11.5 1.3 5 1 47.7 1.2 54 .2 7.8-1.1 15.9-3.6 18.1-5.5 1.5-1.3 1.6-13.7 1.6-133.4 0-72.6-.3-132-.6-132-.4 0-1.6.7-2.8 1.5zm14.6 105.9c0 2.2-.1 11-.1 19.4V323l6.5 6.8c3.6 3.7 8.9 9.3 11.8 12.6 3 3.2 7 7.5 8.9 9.5 1.9 2.1 8.7 9.3 15 16 6.3 6.8 14.5 15.6 18.2 19.5 3.6 3.9 6.5 7.2 6.4 7.3-.2.2-25.3 7.1-28.3 7.8-1 .2-7 1.8-13.3 3.4-6.3 1.7-14.5 3.8-18.2 4.8-6.8 1.6-6.8 1.6-6.9 5.2-.2 14.4-.1 23.2.4 23.7.3.3 9.5-1.5 20.4-4.1 10.9-2.6 20.7-4.9 21.8-5.1 1.1-.3 3.1-.7 4.4-1 1.4-.3 8.1-1.9 15-3.5s17.3-4.1 23.1-5.5c28.6-6.7 39.2-9.3 39.7-9.8.4-.3-4.3-5.5-10.3-11.5-6-6-34.2-34.3-62.6-62.9l-51.8-52-.1 4.2z"/><path d="M466.9 348.5c0 1.6-.1 7.2 0 12.4l.1 9.4 11 10.9c7.6 7.5 11.6 10.8 12.8 10.5.9-.3 4.4-1.3 7.7-2.2 3.3-1 6.4-1.8 6.8-1.9 1-.2.1-1.2-32.6-36.1l-5.6-6-.2 3zM25.1 474.3c-7.3 27-16.1 59-19.3 71.1l-6 21.9 6.5 6.5c4.6 4.6 6.8 6.2 7.1 5.1.4-1.2 20.7-68.7 28.1-93.4 1.3-4.4 3.7-12.4 5.3-17.8l2.9-9.7-3.4-2.1c-5.8-3.6-6.7-6-7.3-19.1l-.5-11.8-13.4 49.3zM577 430.5c-12.5 3-43.9 10.4-51.5 12.1-3.3.7-16.6 3.8-29.5 6.9-12.9 3.1-24.6 5.8-26 6-3.6.7-17.2 3.9-36.1 8.4-9.1 2.2-17.6 4.2-19 4.5-5.2 1.1-7.7 1.7-15.9 3.7-4.7 1.1-9.4 2.3-10.5 2.5-1.1.2-13.7 3.1-28 6.4-14.3 3.4-26.7 6.3-27.5 6.5-.8.2-7.6 1.7-15 3.5-7.4 1.7-14.4 3.3-15.5 3.5-1.1.3-6.5 1.6-12 2.9-5.5 1.4-11.1 2.7-12.5 3-2.5.4-102.4 23.7-112 26.1-3.6.8-41.7 9.7-43.5 10-1.1.3-13.6 3.2-27.9 6.5-14.2 3.3-26.1 5.9-26.3 5.6-.4-.4 11-43.2 19.3-72.8 3.2-11.5 3.2-11.4-1.8-11.6-2.4-.1-7.2-.5-10.8-.8-3.6-.3-7.6-.6-9-.7-2.4-.2-2.8.7-15.8 43.8-15.9 52.3-24 79-25.2 82.7-.5 1.6-.6 2.8-.3 2.8.4 0 10.3-2.6 25.3-6.6 3-.8 6.2-1.7 7-1.9 1.5-.3 5.5-1.4 47.5-12.5 12.7-3.4 23.7-6.3 24.6-6.5.9-.2 6.7-1.7 13-3.4 6.3-1.6 14.9-3.9 19.2-5.1 4.2-1.1 11.2-2.9 15.5-4.1 4.2-1.1 8.4-2.2 9.2-2.4.8-.2 5.1-1.3 9.5-2.5 14.9-4 26-6.9 38-10 6.6-1.7 16.3-4.3 21.5-5.7 5.2-1.4 10.2-2.7 11-2.8.8-.2 1.5-.4 1.5-.5 0-.1.7-.3 1.5-.5 1.7-.3 14.6-3.7 67-17.6 20.6-5.5 38.2-10.2 39.1-10.4.9-.2 6.9-1.8 13.4-3.5s12.5-3.3 13.4-3.5c2.4-.5 24.7-6.4 32.1-8.5 7.2-2.1 40.4-10.8 43.5-11.4 1.1-.3 18.2-4.8 38-10.1s36.9-9.8 38-10.1c1.1-.2 8.3-2.1 16-4.2l13.9-3.7 1.7-5.5c2.5-8.4 3-11 2.2-10.9-.5 0-5.1 1.1-10.3 2.4z"/><path d="M320.7 459.7c-.1.1-5.3.4-11.6.8-6.2.4-12.3.8-13.5 1.1-1.1.2-4.1.6-6.6.8-6.3.7-18.9 3.2-25.1 5-2.9.9-6.5 1.6-8.1 1.6-2.4 0-14.2 3-66.8 16.9-6.3 1.7-16.4 4.3-22.5 5.9-55.9 14.7-77.1 20.5-77.7 21-.4.4-.9 1.8-1.2 3.2-.3 1.4-1.2 5.1-2 8.2-.8 3.2-1.3 5.8-1.2 5.8.1 0 9.6-2.2 21.1-4.9 36.3-8.6 77.9-18.3 79.5-18.6.8-.2 7.3-1.7 14.4-3.4 7-1.7 13.8-3.3 15-3.5 1.1-.3 3-.7 4.1-1 1.1-.2 5.2-1.2 9-2.1 3.9-.9 7.9-1.9 9-2.1 1.1-.2 6.5-1.5 12-2.8 5.5-1.4 11.1-2.7 12.5-3 1.4-.2 8.4-1.9 15.5-3.6 7.2-1.8 13.7-3.3 14.5-3.5 9-2 24.2-5.5 47.5-11 32.9-7.9 30.5-7.3 32.9-7.4 2.5-.1 1.2-1.4-1.7-1.7-9.6-.9-48.5-2.3-49-1.7z"/></svg>