<svg viewBox="0 0 3240.05 389.1" xmlns="http://www.w3.org/2000/svg"><g fill-rule="evenodd"><path d="M290.62 238.39C640.4 416.59 1194.36 88 1904.69 227.45c832.48 163.42 1187.5 6.25 1187.5 6.25s403.12-157.81-121.88-32.81-812.83-186.3-1479.69-59.38C488.21 332.31 293.15 79 314.51 62.39c0 0-212.17 80.07-23.89 176z" fill="#c80000"/><path d="M2850 27.45c-627.27 375.8-1104.14 272.16-1356.25 204.69-250-66.91-474.46-257-854.69-21.88C386.56 366.44 0 330.58 0 330.58L59.38 365s303.39 25.26 567.18-111c237.5-122.67 440.81-75 684.38 18.75 278.12 107 877.42 238.3 1539.06-106.25 153.19-79.76 148.17-227.82 0-139.05z" fill="#2b79bc"/></g></svg>