<svg xmlns="http://www.w3.org/2000/svg" viewBox="0 0 348.1 347.12"><linearGradient id="a" gradientUnits="userSpaceOnUse" x1="73.312" y1="234.572" x2="69.018" y2="40.37" gradientTransform="rotate(14.798 29.512 266.995)"><stop offset="0" stop-color="#b66b29"/><stop offset=".266" stop-color="#efb44b"/><stop offset=".575" stop-color="#fbf7c1"/><stop offset=".737" stop-color="#e4a33c"/><stop offset="1" stop-color="#b46a28"/></linearGradient><path fill="url(#a)" d="M55.62 251.96L174.05 46.82l-8.71-15.09L29.51 267z"/><linearGradient id="b" gradientUnits="userSpaceOnUse" x1="139.458" y1="44.476" x2="-40.385" y2="221.344" gradientTransform="rotate(14.798 29.512 266.995)"><stop offset="0" stop-color="#b66b29"/><stop offset=".266" stop-color="#efb44b"/><stop offset=".575" stop-color="#fbf7c1"/><stop offset=".737" stop-color="#e4a33c"/><stop offset="1" stop-color="#b46a28"/></linearGradient><path fill="url(#b)" d="M165.36 1.59L20.82 251.95 29.51 267 165.34 31.73l1.19-.21.28-27.88z"/><linearGradient id="c" gradientUnits="userSpaceOnUse" x1="90.865" y1="39.885" x2="314.131" y2="125.757" gradientTransform="rotate(14.798 29.512 266.995)"><stop offset="0" stop-color="#b66b29"/><stop offset=".266" stop-color="#efb44b"/><stop offset=".575" stop-color="#fbf7c1"/><stop offset=".737" stop-color="#e4a33c"/><stop offset="1" stop-color="#b46a28"/></linearGradient><path fill="url(#c)" d="M165.34 31.73l118.44 205.13h17.43L165.36 1.59z"/><linearGradient id="d" gradientUnits="userSpaceOnUse" x1="59.742" y1="193.235" x2="293.247" y2="252.685" gradientTransform="rotate(14.798 29.512 266.995)"><stop offset="0" stop-color="#b66b29"/><stop offset=".266" stop-color="#efb44b"/><stop offset=".575" stop-color="#fbf7c1"/><stop offset=".737" stop-color="#e4a33c"/><stop offset="1" stop-color="#b46a28"/></linearGradient><path fill="url(#d)" d="M29.51 267H318.6l8.69-15.05-271.67.01.98-2.76-21.91 10.24z"/><linearGradient id="e" gradientUnits="userSpaceOnUse" x1="107.147" y1="9.975" x2="90.138" y2="72.066" gradientTransform="rotate(14.798 29.512 266.995)"><stop offset="0" stop-color="#702022"/><stop offset=".82" stop-color="#fff"/></linearGradient><path opacity=".5" fill="url(#e)" d="M145.62 96.07l28.43-49.25-8.71-15.09-31.56 54.07z"/><linearGradient id="f" gradientUnits="userSpaceOnUse" x1="4988.7" y1="4672.383" x2="4971.69" y2="4734.475" gradientTransform="rotate(134.797 3563.925 1477.686)"><stop offset="0" stop-color="#702022"/><stop offset=".82" stop-color="#fff"/></linearGradient><path opacity=".5" fill="url(#f)" d="M255.34 187.61l28.44 49.25h17.43l-31.05-54.37z"/><linearGradient id="g" gradientUnits="userSpaceOnUse" x1="227.904" y1="175.409" x2="173.078" y2="-46.205" gradientTransform="rotate(14.798 29.512 266.995)"><stop offset="0" stop-color="#b66b29"/><stop offset=".266" stop-color="#efb44b"/><stop offset=".575" stop-color="#fbf7c1"/><stop offset=".737" stop-color="#e4a33c"/><stop offset="1" stop-color="#b46a28"/></linearGradient><path fill="url(#g)" d="M327.29 251.95L182.75 1.59h-17.39l135.85 235.27z"/><linearGradient id="h" gradientUnits="userSpaceOnUse" x1="248.542" y1="137.959" x2="69.863" y2="318.62" gradientTransform="rotate(14.798 29.512 266.995)"><stop offset="0" stop-color="#b66b29"/><stop offset=".266" stop-color="#efb44b"/><stop offset=".575" stop-color="#fbf7c1"/><stop offset=".737" stop-color="#e4a33c"/><stop offset="1" stop-color="#b46a28"/></linearGradient><path fill="url(#h)" d="M301.21 236.86l-236.87.01-8.72 15.09 271.67-.01-7.24-8.47-20.45-10.44z"/><linearGradient id="i" gradientUnits="userSpaceOnUse" x1="6402.024" y1="-1776.399" x2="6385.015" y2="-1714.307" gradientTransform="rotate(-105.201 4003.059 1658.72)"><stop offset="0" stop-color="#702022"/><stop offset=".82" stop-color="#fff"/></linearGradient><path opacity=".5" fill="url(#i)" d="M121.2 236.86l-56.86.01-8.72 15.09 62.61.29z"/><path d="M165.36 1.59s19.21 36.54 67.23 118.57 68.61 116.7 68.61 116.7-21.51-38.93-67.06-117.4S165.36 1.59 165.36 1.59zm-.02 30.14s-22.03 34.91-69.06 117.51S29.51 267 29.51 267s22.96-38.1 68.15-116.77 67.68-118.5 67.68-118.5zm161.95 220.22s-41.25-1.63-136.3-1.06-135.37 1.07-135.37 1.07 44.47.83 135.2.63 136.47-.64 136.47-.64z" fill="#fff"/></svg>